<?xml version="1.0" encoding="utf-8"?>
<!-- Generator: Adobe Illustrator 16.0.0, SVG Export Plug-In . SVG Version: 6.00 Build 0)  -->
<!DOCTYPE svg PUBLIC "-//W3C//DTD SVG 1.1//EN" "http://www.w3.org/Graphics/SVG/1.1/DTD/svg11.dtd">
<svg version="1.1" id="レイヤー_1" xmlns="http://www.w3.org/2000/svg" xmlns:xlink="http://www.w3.org/1999/xlink" x="0px"
	 y="0px" width="7px" height="11.438px" viewBox="7.733 4.925 7 11.438" enable-background="new 7.733 4.925 7 11.438"
	 xml:space="preserve">
<g>
	<path d="M10.251,4.925h1.965c0.077,0,0.16,0.019,0.248,0.058l0.987,0.495c0.05,0.019,0.094,0.053,0.131,0.102l0.495,0.479
		c0.021,0.02,0.035,0.039,0.044,0.059c0.011,0.02,0.024,0.039,0.044,0.058c0.01,0.01,0.015,0.02,0.015,0.029l0.479,0.96
		c0.051,0.087,0.073,0.175,0.073,0.262v0.99c0,0.078-0.022,0.16-0.073,0.248L14.181,9.64l-0.117,0.146l-0.48,0.48
		c-0.037,0.039-0.081,0.073-0.131,0.102l-1.687,0.844v1.164c0,0.146-0.055,0.27-0.161,0.371c-0.106,0.103-0.23,0.153-0.371,0.153
		s-0.265-0.054-0.371-0.16c-0.107-0.107-0.16-0.228-0.16-0.364v-1.484c0-0.213,0.102-0.369,0.306-0.465l1.894-0.96l0.376-0.379
		l0.408-0.8V7.544l-0.408-0.786l-0.376-0.393l-0.801-0.393h-1.718L9.582,6.366L9.203,6.759L8.81,7.544v0.378
		c0,0.068-0.015,0.134-0.043,0.197C8.737,8.183,8.699,8.239,8.65,8.287C8.602,8.335,8.543,8.375,8.476,8.403
		C8.408,8.433,8.34,8.447,8.272,8.447c-0.146,0-0.272-0.054-0.378-0.16c-0.106-0.107-0.16-0.229-0.16-0.364V7.428
		c0-0.078,0.019-0.155,0.058-0.232l0.51-0.99c0.01-0.02,0.019-0.037,0.029-0.051C8.34,6.14,8.35,6.124,8.359,6.104
		C8.369,6.084,8.383,6.07,8.403,6.06l0.48-0.479c0.02-0.02,0.046-0.039,0.08-0.059c0.034-0.02,0.061-0.034,0.08-0.043l0.961-0.495
		C10.091,4.944,10.173,4.925,10.251,4.925z M11.328,14.327c0.126,0.019,0.237,0.087,0.335,0.202l0.423,0.437
		c0.116,0.107,0.175,0.229,0.175,0.364c0,0.137-0.054,0.262-0.16,0.379l-0.496,0.494c-0.106,0.107-0.228,0.16-0.364,0.16
		c-0.048,0-0.097-0.007-0.146-0.021s-0.09-0.034-0.124-0.059c-0.034-0.023-0.065-0.051-0.094-0.08l-0.509-0.494
		c-0.107-0.107-0.16-0.219-0.16-0.335c-0.01-0.146,0.044-0.276,0.16-0.394l0.451-0.466c0.029-0.038,0.061-0.069,0.095-0.094
		s0.065-0.043,0.095-0.058s0.063-0.027,0.102-0.036c0.029-0.011,0.053-0.015,0.073-0.015h0.102c0.01,0,0.017,0.002,0.022,0.007
		C11.311,14.323,11.318,14.327,11.328,14.327z"/>
</g>
</svg>
