<?xml version="1.0" encoding="utf-8"?>
<!-- Generator: Adobe Illustrator 16.0.0, SVG Export Plug-In . SVG Version: 6.00 Build 0)  -->
<!DOCTYPE svg PUBLIC "-//W3C//DTD SVG 1.1//EN" "http://www.w3.org/Graphics/SVG/1.1/DTD/svg11.dtd">
<svg version="1.1" id="レイヤー_1" xmlns="http://www.w3.org/2000/svg" xmlns:xlink="http://www.w3.org/1999/xlink" x="0px"
	 y="0px" width="123.312px" height="31.495px" viewBox="0 0 123.312 31.495" enable-background="new 0 0 123.312 31.495"
	 xml:space="preserve">
<text transform="matrix(1 0 0 1 1.6763 101.7915)" fill="#949494" font-family="'YuGo-Medium-83pv-RKSJ-H'" font-size="11.037">記録：着物を考えるための調べもの</text>
<text transform="matrix(1 0 0 1 61.9717 394.1641)" font-family="'Hershey-Futural-30'" font-size="12">Kimono? Rethinking with Technology, Design, and Art</text>
<text transform="matrix(1 0 0 1 61.9717 374.3271)" font-family="'Hershey-Futural-30'" font-size="12">Kimono: thinking through Technology, Design and Art</text>
<text transform="matrix(1 0 0 1 61.9717 414.001)" font-family="'Hershey-Futural-30'" font-size="12">Reframing Kimono + Technology, Design and Art</text>
<text transform="matrix(1 0 0 1 61.9717 433.8389)" font-family="'Hershey-Futural-30'" font-size="12">Revisiting Kimono + Technology, Design, and Art</text>
<text transform="matrix(1 0 0 1 1.6763 118.5864)"><tspan x="0" y="0" fill="#949494" font-family="'Hershey-Futural-30'" font-size="12">Re</tspan><tspan x="15.246" y="0" fill="#949494" font-family="'Hershey-Futural-30'" font-size="12">t</tspan><tspan x="20.416" y="0" fill="#949494" font-family="'Hershey-Futural-30'" font-size="12">hinking</tspan><tspan x="65.333" y="0" fill="#949494" font-family="'Hershey-Futural-30'" font-size="12" letter-spacing="-1"> </tspan><tspan x="69.824" y="0" fill="#949494" font-family="'Hershey-Futural-30'" font-size="12">K</tspan><tspan x="78.187" y="0" fill="#949494" font-family="'Hershey-Futural-30'" font-size="12">imo</tspan><tspan x="101.46" y="0" fill="#949494" font-family="'Hershey-Futural-30'" font-size="12">n</tspan><tspan x="109.2" y="0" fill="#949494" font-family="'Hershey-Futural-30'" font-size="12">o</tspan><tspan x="117.227" y="0" fill="#949494" font-family="'Hershey-Futural-30'" font-size="12" letter-spacing="-2"> </tspan><tspan x="121.477" y="0" fill="#949494" font-family="'Hershey-Futural-30'" font-size="12">from</tspan><tspan x="151.969" y="0" fill="#949494" font-family="'Hershey-Futural-30'" font-size="12"> </tspan><tspan x="157.899" y="0" fill="#949494" font-family="'Hershey-Futural-30'" font-size="12">C</tspan><tspan x="166.724" y="0" fill="#949494" font-family="'Hershey-Futural-30'" font-size="12">o</tspan><tspan x="174.247" y="0" fill="#949494" font-family="'Hershey-Futural-30'" font-size="12">n</tspan><tspan x="181.579" y="0" fill="#949494" font-family="'Hershey-Futural-30'" font-size="12">tempor</tspan><tspan x="226.508" y="0" fill="#949494" font-family="'Hershey-Futural-30'" font-size="12">a</tspan><tspan x="233.779" y="0" fill="#949494" font-family="'Hershey-Futural-30'" font-size="12" letter-spacing="1">r</tspan><tspan x="239.832" y="0" fill="#949494" font-family="'Hershey-Futural-30'" font-size="12" letter-spacing="-2">y</tspan><tspan x="244.082" y="0" fill="#949494" font-family="'Hershey-Futural-30'" font-size="12"> A</tspan><tspan x="257.711" y="0" fill="#949494" font-family="'Hershey-Futural-30'" font-size="12">n</tspan><tspan x="264.971" y="0" fill="#949494" font-family="'Hershey-Futural-30'" font-size="12">gles</tspan></text>
<g>
	<path fill="#949494" d="M5.838,3.195c0,0.059-0.007,0.067-0.052,0.067S5.549,3.247,4.95,3.247H3.759
		c-0.6,0-0.799,0.015-0.836,0.015c-0.044,0-0.052-0.008-0.052-0.067V2.884c0-0.044,0.007-0.052,0.052-0.052
		c0.037,0,0.237,0.015,0.836,0.015H4.95c0.599,0,0.792-0.015,0.836-0.015S5.838,2.84,5.838,2.884V3.195z M5.564,2.181
		c0,0.052-0.008,0.059-0.067,0.059c-0.037,0-0.185-0.015-0.688-0.015H4.04c-0.51,0-0.658,0.015-0.695,0.015
		c-0.052,0-0.059-0.007-0.059-0.059V1.885c0-0.052,0.007-0.06,0.059-0.06c0.037,0,0.185,0.015,0.695,0.015h0.77
		c0.503,0,0.651-0.015,0.688-0.015c0.059,0,0.067,0.007,0.067,0.06V2.181z M5.46,6.895c0,0.858,0.015,0.999,0.015,1.036
		c0,0.052-0.007,0.059-0.059,0.059H5.091c-0.052,0-0.06-0.007-0.06-0.059V7.643H3.736v0.415c0,0.052-0.007,0.052-0.059,0.052H3.352
		c-0.052,0-0.059,0-0.059-0.052c0-0.044,0.015-0.178,0.015-1.073V6.533c0-0.444-0.015-0.607-0.015-0.644
		c0-0.052,0.007-0.059,0.059-0.059c0.037,0,0.192,0.015,0.681,0.015h0.696c0.488,0,0.644-0.015,0.688-0.015
		c0.052,0,0.059,0.007,0.059,0.059c0,0.037-0.015,0.192-0.015,0.533V6.895z M5.417,4.194c0,0.052-0.008,0.06-0.067,0.06
		c-0.037,0-0.17-0.015-0.629-0.015H4.055c-0.466,0-0.6,0.015-0.637,0.015c-0.052,0-0.059-0.008-0.059-0.06V3.905
		c0-0.052,0.007-0.059,0.059-0.059c0.037,0,0.17,0.015,0.637,0.015h0.666c0.459,0,0.592-0.015,0.629-0.015
		c0.059,0,0.067,0.007,0.067,0.059V4.194z M5.417,5.193c0,0.044-0.008,0.052-0.067,0.052c-0.037,0-0.17-0.007-0.629-0.007H4.055
		c-0.466,0-0.6,0.007-0.637,0.007c-0.052,0-0.059-0.007-0.059-0.052V4.904c0-0.052,0.007-0.059,0.059-0.059
		c0.037,0,0.17,0.015,0.637,0.015h0.666c0.459,0,0.592-0.015,0.629-0.015c0.059,0,0.067,0.007,0.067,0.059V5.193z M5.031,6.207
		H3.736V7.28h1.295V6.207z M6.556,6.947c0,0.245,0.015,0.377,0.081,0.437c0.082,0.074,0.377,0.118,0.925,0.118
		c0.748,0,1.014-0.074,1.154-0.222c0.111-0.125,0.185-0.37,0.208-0.917C8.998,6.421,9.102,6.473,9.213,6.51
		c0.148,0.052,0.148,0.059,0.141,0.2C9.302,7.243,9.206,7.465,9.05,7.635c-0.192,0.2-0.555,0.289-1.539,0.289
		c-0.718,0-1.088-0.052-1.221-0.17C6.149,7.635,6.112,7.487,6.112,7.095V5.089c0-0.533-0.015-0.762-0.015-0.807
		c0-0.052,0.007-0.059,0.059-0.059c0.037,0,0.267,0.015,0.792,0.015h1.48V2.359H6.97c-0.592,0-0.777,0.015-0.814,0.015
		c-0.052,0-0.059-0.007-0.059-0.059V1.989c0-0.052,0.007-0.06,0.059-0.06c0.037,0,0.222,0.015,0.814,0.015h1.029
		c0.592,0,0.785-0.015,0.829-0.015c0.052,0,0.059,0.008,0.059,0.06c0,0.037-0.015,0.222-0.015,0.77v1.465
		c0,0.54,0.015,0.732,0.015,0.77c0,0.052-0.007,0.059-0.059,0.059H8.487c-0.052,0-0.059-0.007-0.059-0.059v-0.34H6.556V6.947z"/>
	<path fill="#949494" d="M11.958,1.818c0.318,0.422,0.578,0.696,1.059,1.051c-0.082,0.052-0.148,0.141-0.192,0.237
		c-0.037,0.067-0.052,0.096-0.074,0.096c-0.022,0-0.052-0.029-0.111-0.074c-0.355-0.326-0.637-0.651-0.866-0.984
		c-0.318,0.525-0.77,1.006-1.302,1.473c-0.052,0.037-0.082,0.059-0.111,0.059c-0.03,0-0.052-0.029-0.074-0.096
		c-0.037-0.096-0.096-0.192-0.17-0.259c0.606-0.452,1.043-0.947,1.31-1.428c0.096-0.163,0.141-0.289,0.155-0.4
		c0.148,0.03,0.296,0.067,0.43,0.119c0.044,0.015,0.074,0.044,0.074,0.066c0,0.037-0.015,0.067-0.066,0.096L11.958,1.818z
		 M12.89,4.979c0,0.052-0.007,0.059-0.059,0.059c-0.037,0-0.208-0.015-0.77-0.015h-0.17v2.042c0.289-0.096,0.592-0.207,0.888-0.34
		c-0.022,0.089-0.037,0.185-0.037,0.274c0,0.148-0.022,0.155-0.141,0.2c-0.533,0.207-1.103,0.392-1.754,0.577
		c-0.155,0.044-0.244,0.089-0.274,0.111c-0.029,0.022-0.059,0.044-0.096,0.044c-0.029,0-0.074-0.015-0.089-0.059
		c-0.052-0.126-0.096-0.267-0.141-0.407c0.215-0.022,0.348-0.044,0.562-0.096c0.215-0.052,0.444-0.104,0.673-0.17V5.023h-0.289
		c-0.562,0-0.732,0.015-0.77,0.015c-0.052,0-0.059-0.007-0.059-0.059V4.697c0-0.052,0.007-0.059,0.059-0.059
		c0.037,0,0.207,0.015,0.77,0.015h0.289V3.846h-0.052c-0.458,0-0.584,0.015-0.629,0.015c-0.052,0-0.059-0.007-0.059-0.066V3.528
		c0-0.052,0.007-0.059,0.059-0.059c0.044,0,0.17,0.015,0.629,0.015h0.57c0.452,0,0.578-0.015,0.622-0.015
		c0.052,0,0.06,0.007,0.06,0.059v0.267c0,0.059-0.007,0.066-0.06,0.066c-0.044,0-0.17-0.015-0.622-0.015h-0.111v0.807h0.17
		c0.562,0,0.732-0.015,0.77-0.015c0.052,0,0.059,0.007,0.059,0.059V4.979z M10.751,5.467c0.082-0.029,0.089-0.029,0.111,0.022
		c0.141,0.407,0.215,0.762,0.267,1.14c0.007,0.052,0.015,0.066-0.074,0.104l-0.177,0.074c-0.074,0.03-0.104,0.03-0.111-0.029
		c-0.044-0.392-0.125-0.77-0.251-1.147c-0.022-0.06-0.015-0.067,0.082-0.104L10.751,5.467z M12.853,5.652
		c-0.037,0.037-0.066,0.082-0.111,0.207c-0.066,0.208-0.155,0.459-0.237,0.651c-0.044,0.126-0.044,0.126-0.148,0.074
		c-0.082-0.037-0.155-0.059-0.229-0.074c0.148-0.333,0.222-0.599,0.289-0.873c0.022-0.082,0.037-0.178,0.037-0.281
		c0.133,0.037,0.303,0.096,0.392,0.133c0.044,0.022,0.067,0.052,0.067,0.074C12.913,5.6,12.897,5.615,12.853,5.652z M14.977,4.386
		c0.126,0.489,0.296,0.94,0.511,1.347c0.244-0.244,0.444-0.481,0.636-0.755c0.067-0.096,0.126-0.185,0.163-0.289
		c0.141,0.081,0.214,0.133,0.318,0.222c0.037,0.037,0.059,0.067,0.059,0.104c0,0.029-0.037,0.059-0.082,0.089
		c-0.066,0.044-0.126,0.096-0.222,0.214c-0.177,0.229-0.414,0.488-0.688,0.733c0.318,0.481,0.732,0.903,1.302,1.258
		c-0.081,0.066-0.155,0.17-0.214,0.274C16.724,7.65,16.709,7.68,16.679,7.68c-0.022,0-0.052-0.022-0.096-0.059
		c-0.903-0.718-1.369-1.532-1.65-2.539v0.503c0,1.043,0.03,1.524,0.03,1.909c0,0.274-0.03,0.422-0.192,0.533
		c-0.104,0.074-0.281,0.119-0.726,0.126c-0.148,0-0.148,0-0.185-0.148c-0.03-0.119-0.074-0.222-0.148-0.318
		c0.185,0.022,0.296,0.03,0.481,0.03c0.296,0,0.355-0.052,0.355-0.281V6.414c-0.422,0.355-0.762,0.585-1.177,0.836
		c-0.125,0.074-0.214,0.141-0.237,0.178c-0.022,0.037-0.052,0.052-0.074,0.052c-0.03,0-0.052,0-0.082-0.044
		c-0.074-0.104-0.148-0.222-0.222-0.363c0.156-0.059,0.267-0.104,0.4-0.178c0.458-0.259,0.866-0.525,1.391-0.962V4.386h-0.636
		c-0.726,0-0.962,0.015-0.999,0.015c-0.052,0-0.06-0.008-0.06-0.06V4.046c0-0.052,0.007-0.059,0.06-0.059
		c0.037,0,0.273,0.015,0.999,0.015h1.546l0.052-0.71h-1.243c-0.555,0-0.725,0.015-0.77,0.015c-0.052,0-0.059-0.008-0.059-0.06V2.958
		c0-0.052,0.007-0.059,0.059-0.059c0.044,0,0.214,0.015,0.77,0.015h1.266l0.052-0.666h-1.48c-0.585,0-0.777,0.015-0.822,0.015
		c-0.052,0-0.059-0.008-0.059-0.06V1.907c0-0.052,0.007-0.059,0.059-0.059c0.044,0,0.237,0.015,0.822,0.015h1.043
		c0.592,0,0.784-0.015,0.821-0.015c0.052,0,0.066,0.015,0.066,0.066c-0.022,0.185-0.029,0.34-0.044,0.511l-0.119,1.576
		c0.651,0,0.881-0.015,0.917-0.015c0.06,0,0.067,0.007,0.067,0.059v0.296c0,0.052-0.007,0.06-0.067,0.06
		c-0.037,0-0.273-0.015-0.999-0.015H14.977z M13.394,4.771c0.059-0.044,0.074-0.044,0.118,0c0.252,0.289,0.415,0.555,0.57,0.859
		c0.022,0.044,0.022,0.052-0.052,0.111l-0.148,0.118c-0.044,0.03-0.066,0.052-0.089,0.052c-0.015,0-0.029-0.022-0.044-0.052
		c-0.141-0.318-0.311-0.614-0.555-0.88c-0.037-0.037-0.029-0.052,0.044-0.104L13.394,4.771z"/>
	<path fill="#949494" d="M21.378,3.291c0,0.296-0.222,0.518-0.518,0.518s-0.518-0.222-0.518-0.518c0-0.289,0.222-0.518,0.518-0.518
		S21.378,3.002,21.378,3.291z M21.378,6.288c0,0.304-0.222,0.518-0.518,0.518s-0.518-0.214-0.518-0.518
		c0-0.281,0.222-0.518,0.518-0.518S21.378,6.007,21.378,6.288z"/>
	<path fill="#949494" d="M31.457,4.35c0,0.052-0.008,0.059-0.06,0.059c-0.044,0-0.273-0.015-0.984-0.015h-3.227
		c-0.052,0.17-0.111,0.348-0.17,0.511h2.464c0.681,0,0.984-0.015,1.029-0.015c0.052,0,0.059,0.007,0.059,0.066
		c0,0.037-0.015,0.237-0.015,0.955v0.732c0,1.184,0.015,1.376,0.015,1.414c0,0.044-0.007,0.052-0.059,0.052h-0.326
		c-0.052,0-0.059-0.007-0.059-0.052V7.761h-2.886v0.318c0,0.044-0.008,0.052-0.06,0.052h-0.303c-0.052,0-0.059-0.007-0.059-0.052
		c0-0.037,0.015-0.273,0.015-1.458V5.356c-0.34,0.748-0.821,1.443-1.495,2.035c-0.052,0.044-0.081,0.066-0.111,0.066
		c-0.022,0-0.052-0.022-0.104-0.082c-0.074-0.081-0.163-0.148-0.244-0.192c0.903-0.71,1.569-1.709,1.872-2.79h-0.688
		c-0.71,0-0.94,0.015-0.977,0.015c-0.052,0-0.059-0.007-0.059-0.059V4.068c0-0.052,0.007-0.06,0.059-0.06
		c0.037,0,0.267,0.015,0.977,0.015h1.931V3.461h-1.08c-0.748,0-0.999,0.015-1.043,0.015s-0.052-0.007-0.052-0.059V3.15
		c0-0.052,0.007-0.059,0.052-0.059s0.296,0.015,1.043,0.015h1.08V2.588h-1.421c-0.747,0-0.991,0.015-1.036,0.015
		c-0.052,0-0.06-0.007-0.06-0.06V2.27c0-0.052,0.008-0.06,0.06-0.06c0.044,0,0.289,0.015,1.036,0.015h0.562
		c-0.111-0.185-0.251-0.393-0.414-0.57c-0.037-0.044-0.06-0.06,0.037-0.104l0.208-0.104c0.066-0.029,0.081-0.029,0.118,0.007
		c0.178,0.193,0.415,0.533,0.548,0.77h1.221c0.111-0.163,0.192-0.311,0.289-0.525c0.044-0.096,0.074-0.178,0.104-0.296
		c0.148,0.03,0.289,0.067,0.407,0.111c0.052,0.022,0.081,0.037,0.081,0.074s-0.029,0.067-0.066,0.089
		c-0.044,0.03-0.089,0.096-0.126,0.155c-0.066,0.111-0.148,0.252-0.251,0.393h0.688c0.748,0,0.992-0.015,1.029-0.015
		c0.052,0,0.059,0.008,0.059,0.06v0.273c0,0.052-0.007,0.06-0.059,0.06c-0.037,0-0.281-0.015-1.029-0.015H28.43v0.518h1.117
		c0.748,0,0.999-0.015,1.036-0.015c0.059,0,0.067,0.007,0.067,0.059v0.267c0,0.052-0.008,0.059-0.067,0.059
		c-0.037,0-0.289-0.015-1.036-0.015H28.43v0.562h1.983c0.71,0,0.939-0.015,0.984-0.015c0.052,0,0.06,0.008,0.06,0.06V4.35z
		 M30.125,5.26h-2.886v0.496h2.886V5.26z M30.125,6.066h-2.886v0.503h2.886V6.066z M30.125,6.88h-2.886v0.525h2.886V6.88z"/>
	<path fill="#949494" d="M34.92,3.432c0,0.052-0.008,0.059-0.06,0.059c-0.037,0-0.192-0.015-0.71-0.015h-0.037v1.517
		c0.252-0.126,0.511-0.266,0.792-0.437c-0.007,0.104-0.007,0.185,0.007,0.296C34.935,5,34.927,5,34.794,5.075
		c-0.222,0.118-0.444,0.237-0.681,0.355v1.347c0,0.88,0.015,1.273,0.015,1.31c0,0.052-0.007,0.052-0.059,0.052h-0.341
		c-0.052,0-0.059,0-0.059-0.052c0-0.044,0.015-0.429,0.015-1.302V5.637c-0.214,0.096-0.429,0.2-0.658,0.296
		C32.877,6,32.811,6.044,32.773,6.081C32.744,6.111,32.7,6.14,32.67,6.14s-0.059-0.015-0.082-0.059
		c-0.066-0.126-0.125-0.259-0.185-0.422c0.192-0.044,0.407-0.111,0.659-0.207c0.208-0.082,0.415-0.163,0.622-0.251V3.476H33.04
		c-0.052,0.326-0.119,0.659-0.215,0.955c-0.022,0.082-0.029,0.111-0.059,0.111s-0.059-0.015-0.118-0.044
		c-0.074-0.03-0.193-0.06-0.267-0.074c0.251-0.673,0.34-1.347,0.37-1.917c0.015-0.148,0.007-0.281-0.007-0.415
		c0.125,0.015,0.289,0.037,0.399,0.059c0.066,0.015,0.089,0.044,0.089,0.067c0,0.037-0.007,0.052-0.03,0.096
		c-0.022,0.052-0.037,0.111-0.044,0.2l-0.059,0.57h0.584v-0.6c0-0.525-0.007-0.725-0.052-1.014c0.185,0.007,0.326,0.015,0.474,0.037
		c0.052,0.007,0.082,0.029,0.082,0.066c0,0.044-0.015,0.074-0.03,0.133c-0.029,0.089-0.044,0.274-0.044,0.762v0.614h0.037
		c0.518,0,0.673-0.015,0.71-0.015c0.052,0,0.06,0.007,0.06,0.052V3.432z M37.835,2.943c0.622,0,0.821-0.015,0.858-0.015
		c0.059,0,0.074,0.022,0.074,0.074c-0.007,0.17-0.015,0.34-0.015,0.503c-0.015,1.502-0.081,2.457-0.237,3.419
		c-0.118,0.732-0.355,1.125-0.947,1.125c-0.17,0-0.421-0.015-0.658-0.037c-0.141-0.015-0.141-0.015-0.17-0.17
		c-0.03-0.141-0.059-0.237-0.111-0.333c0.34,0.06,0.606,0.089,0.873,0.089c0.377,0,0.518-0.333,0.592-0.814
		c0.141-0.91,0.222-1.791,0.237-3.456h-0.385c-0.488,2.072-1.243,3.367-2.649,4.396c-0.052,0.037-0.088,0.059-0.111,0.059
		c-0.03,0-0.059-0.03-0.104-0.089c-0.082-0.104-0.163-0.17-0.251-0.222c1.443-0.977,2.257-2.235,2.686-4.145h-0.718
		c-0.385,1.303-0.888,2.028-1.695,2.701c-0.052,0.044-0.081,0.066-0.104,0.066c-0.029,0-0.059-0.029-0.104-0.081
		c-0.074-0.089-0.17-0.163-0.251-0.2c0.807-0.577,1.414-1.354,1.724-2.486h-0.681c-0.17,0.289-0.37,0.57-0.614,0.858
		c-0.052,0.059-0.074,0.089-0.104,0.089c-0.03,0-0.052-0.022-0.104-0.074c-0.081-0.081-0.148-0.125-0.237-0.163
		c0.607-0.636,0.955-1.302,1.162-1.954c0.074-0.237,0.118-0.422,0.133-0.622c0.17,0.029,0.289,0.059,0.429,0.096
		c0.052,0.015,0.082,0.037,0.082,0.074c0,0.044-0.022,0.074-0.06,0.119c-0.052,0.059-0.089,0.177-0.148,0.348
		c-0.096,0.281-0.2,0.562-0.34,0.844H37.835z"/>
	<path fill="#949494" d="M43.711,6.518c0,0.06-0.015,0.082-0.082,0.089c-0.074,0.015-0.222,0.03-0.318,0.03
		c-0.044,0-0.066-0.037-0.066-0.089c0-0.326,0-0.688,0.007-1.066c-0.814,0.407-1.213,0.785-1.213,1.229
		c0,0.437,0.407,0.614,1.265,0.614c0.614,0,1.221-0.074,1.761-0.148c0.037-0.007,0.067,0,0.082,0.052
		c0.022,0.111,0.044,0.259,0.044,0.363c0,0.066-0.03,0.096-0.059,0.104C44.606,7.761,44,7.798,43.304,7.798
		c-1.036,0-1.709-0.266-1.709-1.058c0-0.622,0.407-1.125,1.636-1.724c-0.015-0.503-0.185-0.703-0.622-0.696
		c-0.318,0.007-0.74,0.192-1.214,0.6c-0.267,0.251-0.444,0.444-0.703,0.718c-0.044,0.052-0.074,0.052-0.111,0.015
		c-0.074-0.066-0.2-0.207-0.259-0.289c-0.022-0.044-0.029-0.059,0.015-0.104c0.673-0.585,1.288-1.303,1.717-2.058
		c-0.459,0.03-0.91,0.03-1.376,0.015c-0.059,0-0.074-0.022-0.082-0.074c-0.015-0.089-0.037-0.251-0.044-0.37
		c0.541,0.03,1.118,0.03,1.717-0.007c0.089-0.222,0.192-0.466,0.267-0.74c0.037-0.125,0.066-0.236,0.059-0.399
		c0.215,0.037,0.429,0.104,0.555,0.163c0.074,0.037,0.074,0.111,0.015,0.163c-0.029,0.03-0.074,0.082-0.133,0.207
		c-0.089,0.185-0.156,0.34-0.252,0.562c0.518-0.052,1.051-0.133,1.562-0.244c0.059-0.015,0.074-0.015,0.089,0.03
		c0.015,0.104,0.037,0.207,0.044,0.326c0,0.052-0.015,0.074-0.096,0.088c-0.584,0.104-1.214,0.185-1.806,0.245
		c-0.252,0.451-0.488,0.799-0.755,1.103l0.007,0.015c0.311-0.222,0.636-0.318,0.925-0.318c0.547,0,0.873,0.289,0.932,0.866
		c0.363-0.163,0.785-0.355,1.155-0.533c0.214-0.104,0.407-0.222,0.562-0.377c0.17,0.148,0.318,0.341,0.362,0.43
		c0.059,0.111,0,0.155-0.074,0.17c-0.089,0.015-0.237,0.052-0.407,0.119c-0.562,0.237-1.029,0.407-1.569,0.636V6.518z"/>
	<path fill="#949494" d="M53.708,3.972c0,0.052-0.007,0.059-0.06,0.059c-0.037,0-0.273-0.015-0.962-0.015h-1.48
		c-0.385,0.296-0.777,0.555-1.184,0.784c-0.03,0.096-0.059,0.2-0.096,0.296c0.725-0.111,1.354-0.244,1.843-0.362
		c0.311-0.074,0.415-0.111,0.555-0.208c0.126,0.082,0.245,0.178,0.348,0.281c0.037,0.037,0.059,0.082,0.059,0.111
		c0,0.037-0.037,0.074-0.111,0.074c-0.104,0-0.267,0.03-0.348,0.044c-0.725,0.155-1.554,0.318-2.479,0.437
		c-0.052,0.133-0.096,0.267-0.148,0.393h2.028c0.644,0,0.858-0.015,0.896-0.015c0.052,0,0.066,0.015,0.066,0.067
		c-0.022,0.192-0.037,0.399-0.059,0.577c-0.074,0.607-0.163,1.014-0.274,1.199c-0.133,0.259-0.377,0.355-0.659,0.355
		c-0.192,0-0.355-0.007-0.622-0.03c-0.148-0.015-0.141-0.015-0.17-0.163c-0.029-0.126-0.074-0.237-0.133-0.326
		c0.318,0.052,0.57,0.074,0.799,0.074c0.2,0,0.326-0.037,0.422-0.229c0.06-0.111,0.163-0.666,0.192-1.125h-2.649
		c-0.066,0.163-0.148,0.318-0.222,0.474c-0.022,0.044-0.03,0.052-0.104,0.037l-0.296-0.066c-0.074-0.022-0.088-0.037-0.059-0.082
		c0.296-0.51,0.533-1.014,0.703-1.532c-0.636,0.318-1.303,0.577-2.013,0.821c-0.133,0.052-0.133,0.052-0.214-0.074
		c-0.059-0.096-0.141-0.17-0.229-0.237c1.369-0.4,2.531-0.888,3.508-1.576h-2.309c-0.695,0-0.925,0.015-0.962,0.015
		c-0.052,0-0.059-0.007-0.059-0.059V3.668c0-0.052,0.007-0.059,0.059-0.059c0.037,0,0.267,0.015,0.962,0.015h1.688V2.833h-0.762
		c-0.681,0-0.903,0.015-0.947,0.015c-0.052,0-0.059-0.007-0.059-0.059V2.484c0-0.052,0.007-0.059,0.059-0.059
		c0.044,0,0.267,0.015,0.947,0.015h0.762V2.299c0-0.392-0.007-0.599-0.059-0.836c0.192,0.007,0.348,0.022,0.496,0.044
		c0.052,0.007,0.096,0.037,0.096,0.066c0,0.044-0.015,0.074-0.037,0.133c-0.037,0.089-0.052,0.251-0.052,0.584V2.44h0.341
		c0.681,0,0.896-0.015,0.939-0.015c0.052,0,0.06,0.007,0.06,0.059v0.304c0,0.052-0.007,0.059-0.06,0.059
		c-0.044,0-0.259-0.015-0.939-0.015h-0.341v0.792h0.681c0.458-0.37,0.866-0.792,1.258-1.28c0.156-0.2,0.222-0.326,0.289-0.496
		c0.17,0.074,0.318,0.163,0.43,0.237c0.044,0.029,0.066,0.066,0.066,0.104c0,0.03-0.03,0.059-0.066,0.074
		c-0.104,0.044-0.208,0.14-0.341,0.296c-0.34,0.392-0.681,0.755-1.036,1.065h1.029c0.688,0,0.925-0.015,0.962-0.015
		c0.052,0,0.06,0.007,0.06,0.059V3.972z"/>
	<path fill="#949494" d="M57.075,3.765c0.592-0.096,1.036-0.185,1.376-0.266c0.111-0.03,0.17-0.052,0.229-0.089
		c0.03-0.022,0.052-0.03,0.089-0.03c0.03,0,0.044,0.015,0.082,0.037c0.089,0.066,0.192,0.148,0.274,0.237
		c0.037,0.037,0.052,0.089,0.052,0.111c0,0.044-0.03,0.096-0.082,0.119c-0.089,0.044-0.163,0.104-0.259,0.192
		c-0.533,0.54-1.036,1.081-1.562,1.635c0.148-0.066,0.274-0.104,0.437-0.104c0.385,0,0.681,0.289,0.785,0.821
		c0.141,0.696,0.281,0.807,1.08,0.807c0.377,0,0.718-0.044,1.096-0.111c0.059-0.015,0.081,0.007,0.088,0.074
		c0.015,0.089,0.03,0.237,0.03,0.362c0,0.052-0.03,0.074-0.096,0.082c-0.333,0.059-0.718,0.096-1.058,0.096
		c-1.066,0-1.392-0.237-1.54-0.977c-0.104-0.525-0.229-0.807-0.57-0.807c-0.237,0-0.547,0.141-0.836,0.43
		c-0.377,0.362-0.814,0.88-1.147,1.272c-0.029,0.03-0.074,0.037-0.118,0.008c-0.104-0.082-0.208-0.178-0.289-0.259
		c-0.037-0.037-0.022-0.096,0.015-0.133c0.547-0.555,1.081-1.103,1.414-1.443c0.466-0.489,1.014-1.095,1.739-1.88
		c-0.792,0.163-1.414,0.289-2.043,0.422c-0.155,0.037-0.244,0.082-0.303,0.104c-0.066,0.03-0.089,0.037-0.133,0.037
		c-0.037,0-0.066-0.03-0.096-0.089c-0.059-0.118-0.133-0.303-0.192-0.511C56.032,3.913,56.387,3.876,57.075,3.765z M58.866,2.233
		c0.067,0.015,0.074,0.037,0.06,0.111c-0.03,0.111-0.074,0.259-0.111,0.34c-0.015,0.037-0.052,0.06-0.096,0.052
		c-0.629-0.148-1.361-0.363-1.879-0.607c-0.037-0.015-0.06-0.044-0.044-0.096c0.029-0.111,0.089-0.252,0.148-0.4
		C57.571,1.893,58.237,2.092,58.866,2.233z"/>
	<path fill="#949494" d="M64.319,4.815c0.533-0.348,1.059-0.525,1.591-0.525c1.065,0,1.724,0.659,1.724,1.621
		c0,1.103-0.873,1.902-2.442,1.902c-0.888,0-1.288-0.4-1.288-0.874c0-0.385,0.34-0.755,0.866-0.755c0.666,0,1.117,0.429,1.258,1.059
		c0.637-0.208,1.081-0.622,1.081-1.347c0-0.755-0.577-1.213-1.28-1.213c-0.732,0-1.465,0.377-2.035,0.836
		c-0.237,0.185-0.429,0.385-0.651,0.607c-0.059,0.059-0.096,0.066-0.148,0.015c-0.089-0.088-0.2-0.2-0.273-0.296
		c-0.03-0.037-0.022-0.066,0.029-0.111c0.584-0.511,0.962-0.888,1.672-1.65c0.43-0.466,0.874-0.94,1.443-1.613
		c-0.614,0.096-1.191,0.207-1.85,0.333c-0.096,0.015-0.185,0.037-0.259,0.066c-0.052,0.022-0.111,0.037-0.141,0.037
		c-0.052,0-0.088-0.03-0.118-0.089c-0.066-0.133-0.119-0.274-0.178-0.511c0.244,0.03,0.452,0.03,0.651,0.008
		c0.584-0.06,1.191-0.141,1.843-0.267c0.089-0.015,0.178-0.037,0.229-0.066c0.029-0.022,0.074-0.052,0.104-0.052
		c0.037,0,0.074,0.015,0.133,0.06c0.141,0.111,0.251,0.222,0.318,0.311c0.037,0.044,0.052,0.089,0.052,0.126
		c0,0.059-0.037,0.111-0.111,0.141c-0.096,0.03-0.178,0.082-0.348,0.259c-0.659,0.696-1.155,1.214-1.895,1.969L64.319,4.815z
		 M64.786,6.584c-0.237,0-0.451,0.118-0.451,0.348c0,0.244,0.266,0.452,0.762,0.452c0.163,0,0.311-0.008,0.481-0.037
		C65.481,6.925,65.208,6.584,64.786,6.584z"/>
	<path fill="#949494" d="M73.147,2.876c0.06-0.015,0.082,0,0.089,0.052c0.015,0.088,0.03,0.214,0.037,0.303
		c0.007,0.074-0.007,0.096-0.074,0.111c-0.481,0.133-0.888,0.229-1.34,0.304c-0.444,1.502-0.896,2.79-1.421,3.989
		C70.41,7.702,70.38,7.702,70.328,7.68c-0.059-0.022-0.251-0.111-0.348-0.163c-0.037-0.022-0.044-0.059-0.03-0.096
		c0.614-1.302,1.036-2.457,1.384-3.693c-0.481,0.052-0.992,0.082-1.495,0.089c-0.089,0-0.104-0.007-0.119-0.074
		c-0.015-0.104-0.037-0.259-0.059-0.407c0.141,0.015,0.266,0.015,0.466,0.015c0.348,0,0.858-0.029,1.332-0.088
		c0.104-0.393,0.163-0.659,0.214-0.933c0.037-0.207,0.074-0.452,0.06-0.696c0.207,0.037,0.437,0.104,0.592,0.17
		c0.037,0.015,0.059,0.044,0.059,0.082c0,0.037-0.022,0.074-0.059,0.118c-0.052,0.066-0.082,0.133-0.118,0.289
		c-0.089,0.304-0.156,0.607-0.237,0.888C72.319,3.121,72.733,3.01,73.147,2.876z M72.778,6.266c0.059,0,0.074,0.015,0.081,0.074
		c0.052,0.666,0.466,0.888,1.399,0.888c0.377,0,0.792-0.052,1.095-0.096c0.059-0.007,0.082-0.007,0.089,0.052
		c0.015,0.089,0.03,0.252,0.03,0.355c0,0.074-0.022,0.089-0.082,0.096c-0.229,0.037-0.614,0.074-0.97,0.074
		c-0.799,0-1.295-0.104-1.628-0.407c-0.259-0.222-0.355-0.555-0.363-0.999C72.556,6.281,72.696,6.266,72.778,6.266z M72.963,4.364
		c0-0.067,0.015-0.089,0.096-0.111c0.429-0.096,0.858-0.156,1.295-0.156c0.303,0,0.629,0.037,0.917,0.074
		c0.089,0.015,0.104,0.037,0.111,0.082c0.007,0.074,0.015,0.229,0.007,0.325c-0.007,0.089-0.03,0.111-0.096,0.096
		c-0.318-0.052-0.637-0.081-0.947-0.081c-0.459,0-0.918,0.066-1.362,0.163C72.97,4.631,72.963,4.453,72.963,4.364z"/>
	<path fill="#949494" d="M80.607,2.433c0.044-0.2,0.059-0.355,0.037-0.547c0.259,0.059,0.437,0.148,0.57,0.222
		c0.096,0.059,0.088,0.133,0.029,0.208c-0.074,0.088-0.096,0.148-0.148,0.289c-0.066,0.177-0.141,0.362-0.259,0.681
		c1.28,0.082,2.072,0.874,2.072,2.021c0,1.317-1.014,2.005-2.257,2.294c-0.104,0.022-0.141,0-0.192-0.074
		c-0.074-0.104-0.178-0.2-0.311-0.274c1.325-0.237,2.257-0.896,2.257-1.961c0-0.688-0.4-1.605-1.695-1.628
		c-0.363,0.91-0.74,1.628-1.147,2.257c0.111,0.17,0.244,0.326,0.414,0.51c-0.081,0.104-0.148,0.178-0.244,0.245
		c-0.037,0.029-0.089,0.037-0.141-0.015c-0.096-0.104-0.207-0.229-0.318-0.377c-0.466,0.548-0.881,0.822-1.28,0.822
		c-0.377,0-0.777-0.318-0.777-1.066c0-0.732,0.377-1.406,1.058-1.991c-0.074-0.289-0.163-0.673-0.237-0.999
		c-0.066-0.296-0.125-0.503-0.214-0.688c0.214,0.007,0.415,0.037,0.533,0.074c0.089,0.03,0.096,0.074,0.089,0.155
		c-0.007,0.104,0.007,0.2,0.03,0.348c0.059,0.318,0.125,0.629,0.185,0.866c0.474-0.274,1.125-0.488,1.694-0.525
		C80.459,3.002,80.54,2.729,80.607,2.433z M77.661,6c0,0.385,0.163,0.614,0.363,0.614c0.267,0,0.577-0.177,0.992-0.718
		c-0.259-0.451-0.474-0.955-0.622-1.421C77.942,4.904,77.661,5.489,77.661,6z M79.312,5.526c0.267-0.407,0.622-1.132,0.903-1.85
		c-0.474,0.044-1.051,0.252-1.458,0.518C78.905,4.667,79.112,5.178,79.312,5.526z"/>
	<path fill="#949494" d="M87.74,2.921c-0.133,1.251-0.511,2.479-0.977,3.234c-0.318,0.54-0.651,0.762-1.088,0.762
		c-0.555,0-1.08-0.607-1.08-1.68c0-0.681,0.311-1.406,0.858-1.917c0.547-0.511,1.288-0.822,2.22-0.822
		c1.658,0,2.642,0.97,2.642,2.383c0,1.206-0.747,2.176-2.353,2.583c-0.089,0.022-0.141,0.008-0.192-0.081
		c-0.044-0.074-0.141-0.185-0.289-0.274c1.465-0.289,2.309-1.081,2.309-2.316c0-1.095-0.851-1.873-1.909-1.873H87.74z M85.779,3.631
		c-0.496,0.489-0.71,1.096-0.71,1.599c0,0.807,0.333,1.155,0.599,1.155c0.252,0,0.474-0.163,0.688-0.541
		c0.377-0.666,0.77-1.813,0.866-2.894C86.645,3.025,86.134,3.276,85.779,3.631z"/>
	<path fill="#949494" d="M93.919,3.166c0,0.059-0.007,0.066-0.059,0.066c-0.037,0-0.2-0.015-0.74-0.015h-0.725
		c-0.547,0-0.703,0.015-0.74,0.015c-0.052,0-0.059-0.007-0.059-0.066V2.854c0-0.052,0.007-0.052,0.059-0.052
		c0.037,0,0.193,0.015,0.74,0.015h0.725c0.541,0,0.703-0.015,0.74-0.015c0.052,0,0.059,0,0.059,0.052V3.166z M93.705,2.174
		c0,0.052-0.007,0.059-0.059,0.059c-0.037,0-0.17-0.015-0.622-0.015h-0.488c-0.451,0-0.584,0.015-0.622,0.015
		c-0.052,0-0.059-0.007-0.059-0.059V1.885c0-0.052,0.007-0.06,0.059-0.06c0.037,0,0.17,0.015,0.622,0.015h0.488
		c0.452,0,0.585-0.015,0.622-0.015c0.052,0,0.059,0.007,0.059,0.06V2.174z M93.667,6.999c0,0.392,0.015,0.518,0.015,0.555
		c0,0.052-0.007,0.067-0.052,0.059c-0.044,0-0.178-0.015-0.599-0.015h-0.74V8.02c0,0.052-0.007,0.059-0.052,0.059h-0.304
		c-0.052,0-0.059-0.007-0.059-0.059c0-0.044,0.015-0.17,0.015-0.821V6.533c0-0.474-0.015-0.629-0.015-0.674
		c0-0.052,0.007-0.059,0.059-0.059c0.037,0,0.192,0.015,0.637,0.015h0.459c0.421,0,0.555-0.015,0.599-0.015s0.052,0.007,0.052,0.059
		c0,0.037-0.015,0.193-0.015,0.57V6.999z M93.608,4.165c0,0.052-0.007,0.059-0.067,0.059c-0.037,0-0.148-0.015-0.555-0.015h-0.429
		c-0.415,0-0.526,0.015-0.562,0.015c-0.052,0-0.06-0.007-0.06-0.059V3.876c0-0.052,0.008-0.06,0.06-0.06
		c0.037,0,0.148,0.015,0.562,0.015h0.429c0.407,0,0.518-0.015,0.555-0.015c0.06,0,0.067,0.007,0.067,0.06V4.165z M93.608,5.171
		c0,0.044-0.007,0.052-0.067,0.052c-0.037,0-0.148-0.015-0.555-0.015h-0.429c-0.415,0-0.526,0.015-0.562,0.015
		c-0.052,0-0.06-0.007-0.06-0.052V4.875c0-0.052,0.008-0.06,0.06-0.06c0.037,0,0.148,0.015,0.562,0.015h0.429
		c0.407,0,0.518-0.015,0.555-0.015c0.06,0,0.067,0.008,0.067,0.06V5.171z M93.275,6.177h-0.984v1.066h0.984V6.177z M97.886,6.288
		c0,0.422,0.015,0.763,0.015,1.081c0,0.229-0.052,0.37-0.2,0.496c-0.104,0.089-0.251,0.133-0.873,0.125
		c-0.111,0-0.126-0.007-0.148-0.118c-0.03-0.133-0.082-0.259-0.141-0.348c0.229,0.022,0.422,0.037,0.673,0.029
		c0.185,0,0.251-0.096,0.251-0.333V2.151h-2.783v1.495c0,1.954-0.104,3.36-0.622,4.3C94.03,8.013,94,8.042,93.971,8.042
		c-0.022,0-0.052-0.022-0.096-0.067c-0.074-0.074-0.163-0.133-0.244-0.17c0.577-0.896,0.637-2.391,0.637-4.204V2.78
		c0-0.644-0.015-0.932-0.015-0.977c0-0.052,0.007-0.059,0.06-0.059c0.037,0,0.273,0.015,0.962,0.015h1.599
		c0.695,0,0.932-0.015,0.969-0.015c0.052,0,0.059,0.007,0.059,0.059c0,0.044-0.015,0.333-0.015,0.977V6.288z M97.264,4.534
		c0,0.052-0.007,0.06-0.052,0.06s-0.215-0.015-0.718-0.015h-0.866c-0.458,0-0.636,0.015-0.673,0.015
		c-0.052,0-0.059-0.007-0.059-0.06V4.297c0-0.052,0.007-0.059,0.059-0.059c0.037,0,0.215,0.015,0.673,0.015h0.215v-0.77h-0.119
		c-0.422,0-0.57,0.015-0.614,0.015c-0.052,0-0.052-0.008-0.052-0.06V3.195c0-0.052,0-0.059,0.052-0.059
		c0.044,0,0.192,0.015,0.614,0.015h0.119V3.047c0-0.303-0.007-0.459-0.044-0.666c0.141,0.007,0.289,0.022,0.415,0.044
		c0.052,0.007,0.081,0.03,0.081,0.066c0,0.037-0.015,0.067-0.037,0.111c-0.03,0.059-0.037,0.148-0.037,0.429V3.15h0.185
		c0.458,0,0.607-0.015,0.651-0.015c0.052,0,0.059,0.007,0.059,0.059v0.244c0,0.052-0.007,0.06-0.059,0.06
		c-0.044,0-0.193-0.015-0.651-0.015h-0.185v0.77h0.274c0.503,0,0.673-0.015,0.718-0.015s0.052,0.007,0.052,0.059V4.534z
		 M96.901,6.096c0,0.755,0.015,0.888,0.015,0.925c0,0.052-0.008,0.059-0.06,0.059h-0.259c-0.052,0-0.059-0.007-0.059-0.059V6.747
		H95.51v0.355c0,0.052-0.007,0.059-0.059,0.059h-0.259c-0.052,0-0.059-0.007-0.059-0.059c0-0.044,0.015-0.17,0.015-0.97V5.755
		c0-0.385-0.015-0.525-0.015-0.562c0-0.052,0.007-0.059,0.059-0.059c0.044,0,0.17,0.015,0.592,0.015h0.488
		c0.415,0,0.54-0.015,0.584-0.015c0.052,0,0.06,0.007,0.06,0.059c0,0.037-0.015,0.178-0.015,0.481V6.096z M96.539,5.489H95.51v0.917
		h1.029V5.489z"/>
	<path fill="#949494" d="M99.668,4.904c0.37-0.311,0.836-0.718,1.333-1.169c0.222-0.215,0.377-0.274,0.547-0.274
		c0.229,0,0.348,0.082,0.548,0.244c0.592,0.474,1.11,0.903,1.717,1.347c0.57,0.4,1.036,0.703,1.628,1.021
		c0.052,0.03,0.067,0.059,0.052,0.096c-0.052,0.133-0.141,0.296-0.214,0.407c-0.037,0.052-0.074,0.059-0.126,0.022
		c-0.429-0.267-1.065-0.688-1.569-1.065c-0.555-0.415-1.11-0.888-1.65-1.34c-0.148-0.133-0.259-0.207-0.377-0.207
		c-0.104,0-0.192,0.066-0.318,0.185c-0.437,0.415-0.977,0.925-1.34,1.266c-0.118,0.118-0.185,0.185-0.244,0.266
		c-0.052,0.074-0.111,0.074-0.17,0.015c-0.111-0.104-0.281-0.318-0.385-0.466C99.306,5.171,99.469,5.075,99.668,4.904z
		 M103.635,2.766c0.022-0.015,0.044-0.015,0.074,0.007c0.296,0.208,0.622,0.57,0.836,0.896c0.022,0.03,0.015,0.059-0.015,0.082
		l-0.214,0.178c-0.037,0.029-0.074,0.022-0.096-0.015c-0.215-0.362-0.526-0.71-0.859-0.947L103.635,2.766z M104.25,2.285
		c0.03-0.022,0.052-0.03,0.082-0.007c0.296,0.229,0.629,0.555,0.844,0.866c0.022,0.037,0.015,0.059-0.022,0.089l-0.2,0.178
		c-0.03,0.029-0.059,0.029-0.089-0.015c-0.185-0.303-0.503-0.666-0.851-0.925L104.25,2.285z"/>
	<path fill="#949494" d="M108.852,6.348c0,0.755,0.4,1.014,1.147,1.014c0.799,0,1.48-0.362,1.48-1.14
		c0-0.392-0.126-0.77-0.681-1.325c0.178,0.015,0.296-0.007,0.459-0.03c0.052-0.007,0.089-0.007,0.126,0.022
		c0.451,0.444,0.614,0.903,0.614,1.339c0,0.999-0.843,1.606-1.917,1.606c-1.154,0-1.695-0.503-1.695-1.48
		c0-0.267,0.044-0.607,0.074-0.917c-0.474-0.06-0.822-0.126-1.177-0.229c-0.037-0.007-0.059-0.03-0.066-0.096
		c-0.015-0.133-0.015-0.281-0.008-0.415c0.452,0.163,0.822,0.229,1.31,0.281c0.066-0.459,0.126-0.888,0.17-1.273
		c-0.481-0.052-0.881-0.111-1.258-0.237c-0.052-0.015-0.059-0.022-0.066-0.096c-0.007-0.111-0.015-0.267-0.015-0.415
		c0.474,0.17,0.94,0.237,1.421,0.289c0.06-0.399,0.082-0.577,0.111-0.896c0.029-0.214,0.037-0.422,0.007-0.629
		c0.214,0.037,0.451,0.119,0.577,0.178c0.066,0.029,0.111,0.074,0.111,0.118c0,0.037-0.022,0.067-0.052,0.104
		c-0.059,0.066-0.096,0.148-0.133,0.348c-0.052,0.289-0.089,0.503-0.133,0.814c0.326,0.022,0.703,0.015,1.036-0.015
		c0.029,0,0.044,0.015,0.044,0.059c0,0.111,0,0.237-0.008,0.34c0,0.059-0.029,0.074-0.074,0.074
		c-0.348,0.022-0.762,0.022-1.081,0.007c-0.059,0.363-0.126,0.814-0.192,1.266C109.4,5.03,109.792,5.038,110.184,5
		c0.067-0.007,0.089,0.007,0.089,0.052c0,0.082-0.007,0.237-0.015,0.326c-0.007,0.067-0.03,0.082-0.067,0.082
		c-0.385,0.03-0.851,0.022-1.265,0.007C108.896,5.763,108.852,6.118,108.852,6.348z"/>
	<path fill="#949494" d="M117.34,2.921c-0.133,1.251-0.511,2.479-0.977,3.234c-0.318,0.54-0.651,0.762-1.088,0.762
		c-0.555,0-1.08-0.607-1.08-1.68c0-0.681,0.311-1.406,0.858-1.917c0.547-0.511,1.288-0.822,2.22-0.822
		c1.658,0,2.642,0.97,2.642,2.383c0,1.206-0.747,2.176-2.353,2.583c-0.089,0.022-0.141,0.008-0.192-0.081
		c-0.044-0.074-0.141-0.185-0.289-0.274c1.465-0.289,2.309-1.081,2.309-2.316c0-1.095-0.851-1.873-1.909-1.873H117.34z
		 M115.379,3.631c-0.496,0.489-0.71,1.096-0.71,1.599c0,0.807,0.333,1.155,0.599,1.155c0.252,0,0.474-0.163,0.688-0.541
		c0.377-0.666,0.77-1.813,0.866-2.894C116.245,3.025,115.734,3.276,115.379,3.631z"/>
</g>
<g>
	<path fill="#949494" d="M3.19,12.943c0-0.073,0.021-0.131,0.062-0.173h0.009c0.01-0.01,0.018-0.018,0.023-0.023l0.008-0.008
		c0.021-0.016,0.043-0.028,0.066-0.036s0.049-0.012,0.075-0.012h2.428c0.025,0,0.052,0.005,0.078,0.016l0.802,0.275
		c0.01,0.005,0.023,0.01,0.039,0.016s0.03,0.013,0.043,0.023c0.014,0.011,0.022,0.019,0.027,0.023l0.26,0.259
		c0.016,0.016,0.031,0.034,0.047,0.055c0.005,0.005,0.008,0.011,0.008,0.016l0.26,0.519c0.021,0.042,0.031,0.084,0.031,0.126v0.542
		c0,0.037-0.011,0.073-0.031,0.11l-0.26,0.535c-0.005,0.01-0.013,0.022-0.023,0.035s-0.019,0.021-0.023,0.023
		c-0.005,0.003-0.011,0.007-0.016,0.012l-0.26,0.267c-0.021,0.021-0.052,0.04-0.094,0.055l-0.802,0.267
		c-0.011,0.005-0.02,0.009-0.027,0.012c-0.008,0.003-0.02,0.007-0.035,0.012c-0.011,0-0.019,0-0.023,0H5.775l1.65,2.569
		c0,0.005,0.002,0.011,0.008,0.016c0.016,0.037,0.023,0.081,0.023,0.133c0,0.068-0.025,0.127-0.074,0.177
		c-0.051,0.05-0.114,0.075-0.193,0.075c-0.083,0-0.151-0.044-0.204-0.133l-1.807-2.837H3.686V18.6c0,0.031-0.007,0.063-0.02,0.094
		c-0.014,0.032-0.031,0.059-0.055,0.083c-0.024,0.023-0.05,0.042-0.079,0.055c-0.028,0.013-0.062,0.02-0.098,0.02
		c-0.063,0-0.12-0.025-0.169-0.075C3.215,18.727,3.19,18.668,3.19,18.6V12.943z M3.686,13.187v2.2H5.83l0.7-0.236l0.204-0.204
		l0.228-0.448v-0.424l-0.228-0.448L6.53,13.43l-0.7-0.244H3.686z"/>
	<path fill="#949494" d="M10.061,14.577h0.81c0.042,0,0.081,0.013,0.118,0.04l0.534,0.259c0.021,0.01,0.042,0.026,0.062,0.047
		l0.268,0.267c0.016,0.016,0.031,0.034,0.047,0.055c0.005,0.005,0.008,0.011,0.008,0.016l0.26,0.534
		c0.016,0.026,0.024,0.046,0.027,0.059c0.002,0.013,0.004,0.03,0.004,0.051v0.542c0,0.068-0.025,0.127-0.075,0.177
		s-0.105,0.075-0.169,0.075H8.969v0.251l0.235,0.699l0.472,0.479l0.448,0.228h0.691l0.447-0.228l0.519-0.511
		c0.006-0.005,0.012-0.012,0.02-0.02s0.017-0.014,0.024-0.02c0.008-0.005,0.017-0.009,0.027-0.012
		c0.01-0.002,0.02-0.006,0.027-0.012s0.017-0.009,0.027-0.012c0.011-0.003,0.021-0.004,0.031-0.004c0.037,0,0.071,0.008,0.103,0.023
		s0.058,0.034,0.078,0.055c0.021,0.021,0.04,0.047,0.056,0.079c0.016,0.031,0.023,0.062,0.023,0.094c0,0.031-0.006,0.062-0.016,0.09
		c-0.011,0.029-0.026,0.056-0.048,0.083c0,0.005-0.002,0.008-0.008,0.008l-0.542,0.534c-0.021,0.021-0.042,0.037-0.062,0.047
		l-0.526,0.267c-0.042,0.021-0.084,0.031-0.126,0.031h-0.81c-0.036,0-0.076-0.01-0.117-0.031l-0.526-0.267
		c-0.011-0.005-0.021-0.012-0.032-0.02c-0.01-0.008-0.021-0.017-0.031-0.027l-0.542-0.534c-0.021-0.021-0.039-0.052-0.055-0.094
		V17.87l-0.268-0.786c-0.016-0.042-0.023-0.07-0.023-0.086v-0.016v-0.534c0-0.031,0.008-0.065,0.023-0.102l0.268-0.786
		c0.016-0.047,0.039-0.084,0.07-0.11l0.526-0.526c0.011-0.01,0.02-0.02,0.027-0.027s0.02-0.015,0.036-0.02l0.526-0.259
		c0.025-0.021,0.047-0.033,0.062-0.036C10.021,14.579,10.04,14.577,10.061,14.577z M10.124,15.08l-0.448,0.228l-0.472,0.471
		l-0.142,0.417h2.641v-0.228l-0.228-0.448l-0.213-0.212l-0.447-0.228H10.124z"/>
	<path fill="#949494" d="M14.32,12.691c0.062,0,0.12,0.025,0.173,0.075c0.052,0.05,0.078,0.109,0.078,0.177v1.634h0.833
		c0.068,0,0.126,0.026,0.173,0.079s0.07,0.11,0.07,0.173c0,0.068-0.024,0.127-0.074,0.177s-0.106,0.075-0.169,0.075h-0.833v2.412
		l0.22,0.668l0.401,0.196h0.479c0.068,0,0.127,0.025,0.177,0.075s0.075,0.107,0.075,0.173s-0.025,0.123-0.075,0.173
		s-0.108,0.075-0.177,0.075h-0.542c-0.036,0-0.076-0.01-0.117-0.031l-0.519-0.267c-0.074-0.037-0.118-0.084-0.134-0.142
		l-0.268-0.793c-0.011-0.037-0.016-0.063-0.016-0.079c0-0.005,0-0.011,0-0.016V15.08h-0.558c-0.068,0-0.127-0.025-0.177-0.075
		s-0.075-0.108-0.075-0.177c0-0.068,0.025-0.127,0.075-0.177s0.108-0.075,0.177-0.075h0.558v-1.634c0-0.031,0.007-0.063,0.02-0.094
		c0.014-0.031,0.031-0.059,0.056-0.083c0.023-0.023,0.05-0.042,0.078-0.055C14.258,12.698,14.288,12.691,14.32,12.691z"/>
	<path fill="#949494" d="M17.52,12.691c0.062,0,0.12,0.025,0.173,0.075c0.052,0.05,0.078,0.109,0.078,0.177v2.365l0.385-0.385
		c0.021-0.021,0.042-0.037,0.063-0.047l0.534-0.259c0.031-0.016,0.062-0.029,0.094-0.04c0.006,0,0.01,0,0.012,0
		c0.003,0,0.007,0,0.012,0h0.81c0.037,0,0.076,0.013,0.118,0.04l0.526,0.259c0.068,0.031,0.11,0.081,0.126,0.149l0.267,0.794
		c0.011,0.031,0.016,0.06,0.016,0.086V18.6c0,0.068-0.024,0.127-0.074,0.177s-0.107,0.075-0.173,0.075s-0.123-0.025-0.173-0.075
		s-0.075-0.108-0.075-0.177v-2.664l-0.228-0.668l-0.393-0.188h-0.691l-0.448,0.228l-0.707,0.699V18.6
		c0,0.031-0.007,0.063-0.02,0.094c-0.014,0.032-0.031,0.059-0.055,0.083c-0.024,0.023-0.05,0.042-0.079,0.055
		c-0.028,0.013-0.062,0.02-0.098,0.02c-0.063,0-0.12-0.025-0.169-0.075c-0.051-0.05-0.075-0.108-0.075-0.177v-5.657
		c0-0.068,0.026-0.125,0.079-0.173c0.021-0.021,0.045-0.039,0.074-0.055C17.457,12.699,17.487,12.691,17.52,12.691z"/>
	<path fill="#949494" d="M23.091,13.147c0.01,0,0.021,0.002,0.031,0.008c0.011,0.005,0.021,0.01,0.031,0.016s0.021,0.01,0.031,0.016
		c0.011,0.005,0.02,0.011,0.028,0.016c0.008,0.005,0.014,0.012,0.02,0.02c0.005,0.008,0.01,0.015,0.016,0.02l0.243,0.251
		c0.021,0.021,0.039,0.047,0.055,0.078c0.017,0.032,0.024,0.063,0.024,0.095c0,0.062-0.026,0.12-0.079,0.173l-0.274,0.259
		c-0.053,0.058-0.11,0.086-0.173,0.086c-0.063,0-0.121-0.026-0.173-0.079l-0.26-0.259c-0.058-0.052-0.087-0.111-0.087-0.177
		s0.026-0.125,0.079-0.177l0.243-0.251c0.037-0.042,0.084-0.073,0.142-0.094c0.011-0.005,0.021-0.005,0.031,0h0.056h0.008H23.091z
		 M23.044,14.577c0.062,0,0.12,0.025,0.173,0.075c0.052,0.05,0.078,0.109,0.078,0.177V18.6c0,0.031-0.007,0.063-0.02,0.094
		c-0.014,0.032-0.031,0.059-0.055,0.083c-0.024,0.023-0.05,0.042-0.079,0.055c-0.028,0.013-0.062,0.02-0.098,0.02
		c-0.063,0-0.12-0.025-0.169-0.075c-0.051-0.05-0.075-0.108-0.075-0.177v-3.771c0-0.068,0.026-0.125,0.079-0.173
		c0.021-0.021,0.045-0.039,0.074-0.055C22.981,14.585,23.012,14.577,23.044,14.577z"/>
	<path fill="#949494" d="M25.49,14.577c0.062,0,0.12,0.025,0.173,0.075c0.052,0.05,0.078,0.109,0.078,0.177v0.479l0.385-0.385
		c0.021-0.021,0.042-0.037,0.063-0.047l0.534-0.259c0.031-0.016,0.062-0.029,0.094-0.04c0.006,0,0.01,0,0.012,0
		c0.003,0,0.007,0,0.012,0h0.81c0.037,0,0.076,0.013,0.118,0.04l0.526,0.259c0.068,0.031,0.11,0.081,0.126,0.149l0.267,0.794
		c0.011,0.031,0.016,0.06,0.016,0.086V18.6c0,0.068-0.024,0.127-0.074,0.177s-0.107,0.075-0.173,0.075s-0.123-0.025-0.173-0.075
		s-0.075-0.108-0.075-0.177v-2.664l-0.228-0.668l-0.393-0.188h-0.691l-0.448,0.228l-0.707,0.699V18.6
		c0,0.031-0.007,0.063-0.02,0.094c-0.014,0.032-0.031,0.059-0.055,0.083c-0.024,0.023-0.05,0.042-0.079,0.055
		c-0.028,0.013-0.062,0.02-0.098,0.02c-0.063,0-0.12-0.025-0.169-0.075c-0.051-0.05-0.075-0.108-0.075-0.177v-3.771
		c0-0.068,0.026-0.125,0.079-0.173c0.021-0.021,0.045-0.039,0.074-0.055C25.428,14.585,25.458,14.577,25.49,14.577z"/>
	<path fill="#949494" d="M31.028,12.691c0.062,0,0.12,0.025,0.173,0.075c0.052,0.05,0.078,0.109,0.078,0.177v3.984l2.271-2.271
		c0.053-0.052,0.111-0.079,0.177-0.079s0.123,0.025,0.173,0.075s0.075,0.109,0.075,0.177c0,0.031-0.008,0.063-0.023,0.094
		c-0.017,0.032-0.037,0.061-0.063,0.086l-1.438,1.454l1.736,1.98c0.036,0.047,0.055,0.1,0.055,0.157
		c0,0.068-0.024,0.127-0.074,0.177s-0.111,0.075-0.185,0.075s-0.134-0.031-0.181-0.094l-1.713-1.949l-0.81,0.817V18.6
		c0,0.031-0.007,0.063-0.02,0.094c-0.014,0.032-0.031,0.059-0.055,0.083c-0.024,0.023-0.05,0.042-0.079,0.055
		c-0.028,0.013-0.062,0.02-0.098,0.02c-0.063,0-0.12-0.025-0.169-0.075c-0.051-0.05-0.075-0.108-0.075-0.177v-5.657
		c0-0.068,0.026-0.125,0.079-0.173c0.021-0.021,0.045-0.039,0.074-0.055C30.966,12.699,30.996,12.691,31.028,12.691z"/>
	<path fill="#949494" d="M35.81,13.147c0.011,0,0.021,0.002,0.031,0.008c0.011,0.005,0.021,0.01,0.032,0.016
		c0.01,0.005,0.021,0.01,0.031,0.016s0.02,0.011,0.027,0.016c0.008,0.005,0.015,0.012,0.02,0.02c0.005,0.008,0.011,0.015,0.016,0.02
		l0.244,0.251c0.021,0.021,0.039,0.047,0.055,0.078c0.016,0.032,0.023,0.063,0.023,0.095c0,0.062-0.026,0.12-0.078,0.173
		l-0.275,0.259c-0.053,0.058-0.11,0.086-0.173,0.086s-0.12-0.026-0.173-0.079l-0.259-0.259c-0.059-0.052-0.087-0.111-0.087-0.177
		s0.026-0.125,0.078-0.177l0.244-0.251c0.036-0.042,0.084-0.073,0.142-0.094c0.01-0.005,0.021-0.005,0.031,0h0.055h0.008H35.81z
		 M35.763,14.577c0.062,0,0.12,0.025,0.173,0.075s0.078,0.109,0.078,0.177V18.6c0,0.031-0.006,0.063-0.02,0.094
		c-0.013,0.032-0.031,0.059-0.055,0.083s-0.05,0.042-0.078,0.055c-0.029,0.013-0.062,0.02-0.099,0.02
		c-0.062,0-0.119-0.025-0.169-0.075S35.52,18.668,35.52,18.6v-3.771c0-0.068,0.025-0.125,0.078-0.173
		c0.021-0.021,0.046-0.039,0.074-0.055C35.701,14.585,35.731,14.577,35.763,14.577z"/>
	<path fill="#949494" d="M38.209,14.577c0.062,0,0.12,0.025,0.173,0.075c0.052,0.05,0.078,0.109,0.078,0.177v0.479l0.385-0.385
		c0.021-0.021,0.042-0.037,0.063-0.047l0.534-0.259c0.031-0.016,0.062-0.029,0.094-0.04c0.006,0,0.01,0,0.012,0
		c0.003,0,0.007,0,0.012,0h0.81c0.037,0,0.076,0.013,0.118,0.04l0.526,0.259c0.068,0.031,0.11,0.081,0.126,0.149l0.267,0.794
		c0.011,0.031,0.016,0.06,0.016,0.086V18.6c0,0.068-0.024,0.127-0.074,0.177s-0.107,0.075-0.173,0.075s-0.123-0.025-0.173-0.075
		s-0.075-0.108-0.075-0.177v-2.664l-0.228-0.668l-0.393-0.188h-0.691l-0.448,0.228l-0.707,0.699V18.6
		c0,0.031-0.007,0.063-0.02,0.094c-0.014,0.032-0.031,0.059-0.055,0.083c-0.024,0.023-0.05,0.042-0.079,0.055
		c-0.028,0.013-0.062,0.02-0.098,0.02c-0.063,0-0.12-0.025-0.169-0.075c-0.051-0.05-0.075-0.108-0.075-0.177v-3.771
		c0-0.068,0.026-0.125,0.079-0.173c0.021-0.021,0.045-0.039,0.074-0.055C38.146,14.585,38.177,14.577,38.209,14.577z"/>
	<path fill="#949494" d="M46.541,14.652c0.05-0.05,0.107-0.075,0.173-0.075s0.123,0.025,0.173,0.075s0.075,0.109,0.075,0.177v4.313
		c0,0.016-0.002,0.03-0.004,0.043c-0.003,0.013-0.007,0.027-0.012,0.043l-0.268,0.794c-0.016,0.047-0.042,0.086-0.078,0.118
		l-0.283,0.283c-0.011,0.011-0.021,0.019-0.031,0.024l-0.534,0.259c-0.042,0.021-0.082,0.031-0.118,0.031h-0.81
		c-0.036,0-0.076-0.011-0.117-0.031l-0.526-0.259c-0.105-0.042-0.155-0.113-0.149-0.212c0-0.084,0.025-0.149,0.078-0.196
		c0.053-0.047,0.11-0.068,0.173-0.063c0.021,0,0.043,0.002,0.067,0.008c0.023,0.005,0.043,0.013,0.059,0.023l0.479,0.236h0.691
		l0.447-0.228l0.204-0.205l0.236-0.699v-0.723l-0.118,0.118c-0.021,0.021-0.042,0.037-0.062,0.047L45.76,18.82
		c-0.042,0.021-0.084,0.031-0.126,0.031h-0.81c-0.036,0-0.076-0.01-0.117-0.031l-0.526-0.267c-0.011-0.005-0.021-0.012-0.032-0.02
		c-0.01-0.008-0.021-0.017-0.031-0.027l-0.542-0.534c-0.021-0.021-0.039-0.052-0.055-0.094V17.87l-0.268-0.786
		c-0.016-0.042-0.023-0.07-0.023-0.086v-0.016v-0.534c0-0.026,0.005-0.055,0.016-0.086l0.275-0.801
		c0.016-0.047,0.039-0.084,0.07-0.11l0.526-0.526c0.011-0.01,0.02-0.02,0.027-0.027s0.02-0.015,0.036-0.02l0.534-0.259
		c0.025-0.016,0.052-0.029,0.078-0.04c0.011,0,0.021,0,0.031,0h0.81c0.042,0,0.081,0.013,0.118,0.04l0.534,0.259
		c0.021,0.01,0.042,0.026,0.062,0.047l0.118,0.118v-0.212C46.467,14.761,46.491,14.702,46.541,14.652z M44.888,15.08l-0.448,0.228
		l-0.472,0.471l-0.235,0.699v0.472l0.235,0.699l0.472,0.479l0.448,0.228h0.691l0.447-0.228l0.44-0.432V15.74l-0.44-0.432
		l-0.447-0.228H44.888z"/>
	<path fill="#949494" d="M52.141,12.691c0.062,0,0.12,0.025,0.173,0.075s0.078,0.109,0.078,0.177v3.174l0.889-0.903
		c0.01-0.016,0.028-0.032,0.055-0.047c0.005,0,0.008-0.002,0.008-0.008l2.396-2.389c0.053-0.052,0.111-0.079,0.177-0.079
		s0.123,0.025,0.173,0.075s0.074,0.109,0.074,0.177c0,0.032-0.005,0.061-0.016,0.086c-0.01,0.026-0.026,0.053-0.047,0.079
		l-0.008,0.008l-2.271,2.279l2.294,3.048l0.008,0.008c0,0.005,0.003,0.011,0.008,0.016c0.021,0.047,0.031,0.094,0.031,0.141
		c0,0.063-0.024,0.119-0.074,0.169s-0.111,0.075-0.185,0.075s-0.137-0.031-0.188-0.094V18.75l-2.255-3.009l-1.069,1.076V18.6
		c0,0.031-0.006,0.063-0.02,0.094c-0.013,0.032-0.031,0.059-0.055,0.083s-0.05,0.042-0.078,0.055
		c-0.029,0.013-0.062,0.02-0.099,0.02c-0.062,0-0.119-0.025-0.169-0.075s-0.074-0.108-0.074-0.177v-5.657
		c0-0.068,0.025-0.125,0.078-0.173c0.021-0.021,0.046-0.039,0.074-0.055C52.079,12.699,52.109,12.691,52.141,12.691z"/>
	<path fill="#949494" d="M57.796,13.147c0.01,0,0.021,0.002,0.031,0.008c0.011,0.005,0.021,0.01,0.031,0.016s0.021,0.01,0.031,0.016
		c0.011,0.005,0.02,0.011,0.028,0.016c0.008,0.005,0.014,0.012,0.02,0.02c0.005,0.008,0.01,0.015,0.016,0.02l0.243,0.251
		c0.021,0.021,0.039,0.047,0.055,0.078c0.017,0.032,0.024,0.063,0.024,0.095c0,0.062-0.026,0.12-0.079,0.173l-0.274,0.259
		c-0.053,0.058-0.11,0.086-0.173,0.086c-0.063,0-0.121-0.026-0.173-0.079l-0.26-0.259c-0.058-0.052-0.087-0.111-0.087-0.177
		s0.026-0.125,0.079-0.177l0.243-0.251c0.037-0.042,0.084-0.073,0.142-0.094c0.011-0.005,0.021-0.005,0.031,0h0.056h0.008H57.796z
		 M57.749,14.577c0.062,0,0.12,0.025,0.173,0.075C57.974,14.702,58,14.761,58,14.829V18.6c0,0.031-0.007,0.063-0.02,0.094
		c-0.014,0.032-0.031,0.059-0.055,0.083c-0.024,0.023-0.05,0.042-0.079,0.055c-0.028,0.013-0.062,0.02-0.098,0.02
		c-0.063,0-0.12-0.025-0.169-0.075c-0.051-0.05-0.075-0.108-0.075-0.177v-3.771c0-0.068,0.026-0.125,0.079-0.173
		c0.021-0.021,0.045-0.039,0.074-0.055C57.687,14.585,57.717,14.577,57.749,14.577z"/>
	<path fill="#949494" d="M60.194,14.577c0.062,0,0.12,0.025,0.173,0.075s0.078,0.109,0.078,0.177v0.479l0.386-0.385
		c0.021-0.021,0.042-0.037,0.062-0.047l0.534-0.259c0.031-0.016,0.063-0.029,0.095-0.04c0.005,0,0.009,0,0.012,0
		c0.002,0,0.006,0,0.012,0h0.81c0.036,0,0.075,0.013,0.117,0.04l0.526,0.259c0.026,0.016,0.053,0.037,0.079,0.062
		c0.026,0.026,0.042,0.055,0.047,0.086l0.142,0.417l0.526-0.519c0.021-0.021,0.047-0.037,0.078-0.047l0.519-0.259
		c0.021-0.011,0.037-0.019,0.048-0.024c0.01-0.005,0.026-0.01,0.047-0.016c0.005,0,0.013,0,0.023,0h0.81
		c0.011,0,0.022,0.001,0.035,0.004c0.013,0.003,0.024,0.007,0.035,0.012c0.011,0.005,0.02,0.009,0.027,0.012
		c0.008,0.002,0.015,0.006,0.021,0.012l0.526,0.259c0.021,0.01,0.046,0.031,0.074,0.062c0.028,0.032,0.043,0.053,0.043,0.063
		l0.275,0.81c0.016,0.037,0.023,0.068,0.023,0.094V18.6c0,0.068-0.024,0.127-0.074,0.177s-0.109,0.075-0.177,0.075
		c-0.068,0-0.128-0.025-0.177-0.075c-0.05-0.05-0.075-0.108-0.075-0.177v-2.664l-0.228-0.668l-0.385-0.188h-0.691l-0.448,0.228
		l-0.715,0.699V18.6c0,0.068-0.025,0.127-0.075,0.177s-0.107,0.075-0.173,0.075s-0.123-0.025-0.173-0.075s-0.074-0.108-0.074-0.177
		v-2.664l-0.228-0.668l-0.394-0.188h-0.691l-0.447,0.228l-0.708,0.699V18.6c0,0.031-0.006,0.063-0.02,0.094
		c-0.013,0.032-0.031,0.059-0.055,0.083s-0.05,0.042-0.078,0.055c-0.029,0.013-0.062,0.02-0.099,0.02
		c-0.062,0-0.119-0.025-0.169-0.075s-0.074-0.108-0.074-0.177v-3.771c0-0.068,0.025-0.125,0.078-0.173
		c0.021-0.021,0.046-0.039,0.074-0.055C60.133,14.585,60.163,14.577,60.194,14.577z"/>
	<path fill="#949494" d="M69.602,14.577h0.841c0.041,0,0.081,0.013,0.117,0.04l0.534,0.259c0.021,0.01,0.042,0.026,0.063,0.047
		l0.542,0.542c0.021,0.021,0.036,0.047,0.047,0.078l0.008,0.008l0.268,0.793c0.016,0.042,0.023,0.071,0.023,0.086
		c0,0.005,0,0.01,0,0.016v0.534c0,0.026-0.006,0.053-0.016,0.079l-0.275,0.81c-0.016,0.047-0.036,0.083-0.062,0.11l-0.534,0.526
		c-0.021,0.021-0.042,0.037-0.063,0.047l-0.526,0.267c-0.042,0.021-0.084,0.031-0.125,0.031h-0.81c-0.037,0-0.076-0.01-0.118-0.031
		l-0.526-0.267c-0.011-0.005-0.021-0.012-0.031-0.02s-0.021-0.017-0.031-0.027l-0.542-0.534c-0.021-0.021-0.04-0.052-0.056-0.094
		V17.87l-0.267-0.786c-0.016-0.042-0.024-0.07-0.024-0.086v-0.016v-0.534c0-0.026,0.006-0.055,0.017-0.086l0.274-0.801
		c0.016-0.047,0.039-0.084,0.071-0.11l0.526-0.526l0.062-0.047l0.511-0.259l0.047-0.024C69.562,14.583,69.58,14.577,69.602,14.577z
		 M69.695,15.08l-0.447,0.228l-0.472,0.471l-0.236,0.699v0.472l0.236,0.699l0.472,0.479l0.447,0.228h0.691l0.448-0.228l0.472-0.479
		l0.235-0.699v-0.472l-0.235-0.699l-0.472-0.471l-0.448-0.228H69.695z"/>
	<path fill="#949494" d="M74.11,14.577c0.062,0,0.12,0.025,0.173,0.075c0.052,0.05,0.078,0.109,0.078,0.177v0.479l0.385-0.385
		c0.021-0.021,0.042-0.037,0.063-0.047l0.534-0.259c0.031-0.016,0.062-0.029,0.094-0.04c0.006,0,0.01,0,0.012,0
		c0.003,0,0.007,0,0.012,0h0.81c0.037,0,0.076,0.013,0.118,0.04l0.526,0.259c0.068,0.031,0.11,0.081,0.126,0.149l0.267,0.794
		c0.011,0.031,0.016,0.06,0.016,0.086V18.6c0,0.068-0.024,0.127-0.074,0.177s-0.107,0.075-0.173,0.075s-0.123-0.025-0.173-0.075
		s-0.075-0.108-0.075-0.177v-2.664l-0.228-0.668l-0.393-0.188h-0.691l-0.448,0.228l-0.707,0.699V18.6
		c0,0.031-0.007,0.063-0.02,0.094c-0.014,0.032-0.031,0.059-0.055,0.083c-0.024,0.023-0.05,0.042-0.079,0.055
		c-0.028,0.013-0.062,0.02-0.098,0.02c-0.063,0-0.12-0.025-0.169-0.075c-0.051-0.05-0.075-0.108-0.075-0.177v-3.771
		c0-0.068,0.026-0.125,0.079-0.173c0.021-0.021,0.045-0.039,0.074-0.055C74.048,14.585,74.078,14.577,74.11,14.577z"/>
	<path fill="#949494" d="M80.345,14.577h0.841c0.041,0,0.081,0.013,0.117,0.04l0.534,0.259c0.021,0.01,0.042,0.026,0.063,0.047
		l0.542,0.542c0.021,0.021,0.036,0.047,0.047,0.078l0.008,0.008l0.268,0.793c0.016,0.042,0.023,0.071,0.023,0.086
		c0,0.005,0,0.01,0,0.016v0.534c0,0.026-0.006,0.053-0.016,0.079l-0.275,0.81c-0.016,0.047-0.036,0.083-0.062,0.11L81.9,18.506
		c-0.021,0.021-0.042,0.037-0.063,0.047l-0.526,0.267c-0.042,0.021-0.084,0.031-0.125,0.031h-0.81c-0.037,0-0.076-0.01-0.118-0.031
		l-0.526-0.267c-0.011-0.005-0.021-0.012-0.031-0.02s-0.021-0.017-0.031-0.027l-0.542-0.534c-0.021-0.021-0.04-0.052-0.056-0.094
		V17.87l-0.267-0.786c-0.016-0.042-0.024-0.07-0.024-0.086v-0.016v-0.534c0-0.026,0.006-0.055,0.017-0.086l0.274-0.801
		c0.016-0.047,0.039-0.084,0.071-0.11l0.526-0.526l0.062-0.047l0.511-0.259l0.047-0.024C80.305,14.583,80.323,14.577,80.345,14.577z
		 M80.438,15.08l-0.447,0.228l-0.472,0.471l-0.236,0.699v0.472l0.236,0.699l0.472,0.479l0.447,0.228h0.691l0.448-0.228l0.472-0.479
		l0.235-0.699v-0.472l-0.235-0.699l-0.472-0.471L81.13,15.08H80.438z"/>
	<path fill="#949494" d="M4.511,21.691h0.542c0.068,0,0.127,0.025,0.177,0.075s0.074,0.107,0.074,0.173s-0.024,0.123-0.074,0.173
		s-0.108,0.075-0.177,0.075H4.573l-0.4,0.196l-0.22,0.668v0.526h0.832c0.068,0,0.126,0.026,0.173,0.079
		c0.048,0.052,0.071,0.11,0.071,0.173c0,0.068-0.025,0.127-0.075,0.177S4.849,24.08,4.785,24.08H3.953v3.52
		c0,0.031-0.007,0.063-0.021,0.094c-0.013,0.032-0.031,0.059-0.055,0.083s-0.05,0.042-0.078,0.055
		c-0.029,0.013-0.062,0.02-0.099,0.02c-0.062,0-0.119-0.025-0.169-0.075S3.458,27.668,3.458,27.6v-3.52H2.899
		c-0.067,0-0.127-0.025-0.177-0.075s-0.074-0.108-0.074-0.177c0-0.068,0.024-0.127,0.074-0.177s0.109-0.075,0.177-0.075h0.559V23.02
		l0.016-0.086l0.267-0.794c0.016-0.062,0.063-0.115,0.142-0.157l0.511-0.259C4.435,21.702,4.474,21.691,4.511,21.691z"/>
	<path fill="#949494" d="M7.38,24.308l0.385-0.385c0.021-0.021,0.042-0.037,0.063-0.047l0.534-0.259
		c0.031-0.016,0.062-0.029,0.094-0.04c0.006,0,0.01,0,0.012,0c0.003,0,0.007,0,0.012,0h0.81c0.068,0,0.126,0.026,0.173,0.079
		s0.071,0.11,0.071,0.173c0,0.068-0.025,0.127-0.075,0.177S9.352,24.08,9.289,24.08H8.535l-0.448,0.228l-0.472,0.471L7.38,25.479
		V27.6c0,0.031-0.007,0.063-0.02,0.094c-0.014,0.032-0.031,0.059-0.055,0.083c-0.024,0.023-0.05,0.042-0.079,0.055
		c-0.028,0.013-0.062,0.02-0.098,0.02c-0.063,0-0.12-0.025-0.169-0.075c-0.051-0.05-0.075-0.108-0.075-0.177v-3.771
		c0-0.068,0.026-0.125,0.079-0.173c0.021-0.021,0.045-0.039,0.074-0.055c0.028-0.016,0.059-0.023,0.091-0.023
		c0.062,0,0.12,0.025,0.173,0.075c0.052,0.05,0.078,0.109,0.078,0.177V24.308z"/>
	<path fill="#949494" d="M11.764,23.577h0.841c0.042,0,0.081,0.013,0.118,0.04l0.534,0.259c0.021,0.01,0.042,0.026,0.062,0.047
		l0.542,0.542c0.021,0.021,0.037,0.047,0.048,0.078l0.008,0.008l0.267,0.793c0.016,0.042,0.023,0.071,0.023,0.086
		c0,0.005,0,0.01,0,0.016v0.534c0,0.026-0.005,0.053-0.016,0.079l-0.274,0.81c-0.016,0.047-0.037,0.083-0.063,0.11l-0.534,0.526
		c-0.021,0.021-0.042,0.037-0.062,0.047L12.73,27.82c-0.042,0.021-0.084,0.031-0.126,0.031h-0.81c-0.036,0-0.076-0.01-0.117-0.031
		l-0.526-0.267c-0.011-0.005-0.021-0.012-0.032-0.02c-0.01-0.008-0.021-0.017-0.031-0.027l-0.542-0.534
		c-0.021-0.021-0.039-0.052-0.055-0.094V26.87l-0.268-0.786c-0.016-0.042-0.023-0.07-0.023-0.086v-0.016v-0.534
		c0-0.026,0.005-0.055,0.016-0.086l0.275-0.801c0.016-0.047,0.039-0.084,0.07-0.11l0.526-0.526l0.063-0.047l0.511-0.259l0.047-0.024
		C11.725,23.583,11.743,23.577,11.764,23.577z M11.858,24.08l-0.448,0.228l-0.472,0.471l-0.235,0.699v0.472l0.235,0.699l0.472,0.479
		l0.448,0.228h0.691l0.447-0.228l0.472-0.479l0.235-0.699v-0.472l-0.235-0.699l-0.472-0.471L12.55,24.08H11.858z"/>
	<path fill="#949494" d="M16.272,23.577c0.062,0,0.12,0.025,0.173,0.075s0.078,0.109,0.078,0.177v0.479l0.386-0.385
		c0.021-0.021,0.042-0.037,0.062-0.047l0.534-0.259c0.031-0.016,0.063-0.029,0.095-0.04c0.005,0,0.009,0,0.012,0
		c0.002,0,0.006,0,0.012,0h0.81c0.036,0,0.075,0.013,0.117,0.04l0.526,0.259c0.026,0.016,0.053,0.037,0.079,0.062
		c0.026,0.026,0.042,0.055,0.047,0.086l0.142,0.417l0.526-0.519c0.021-0.021,0.047-0.037,0.078-0.047l0.519-0.259
		c0.021-0.011,0.037-0.019,0.048-0.024c0.01-0.005,0.026-0.01,0.047-0.016c0.005,0,0.013,0,0.023,0h0.81
		c0.011,0,0.022,0.001,0.035,0.004c0.013,0.003,0.024,0.007,0.035,0.012c0.011,0.005,0.02,0.009,0.027,0.012
		c0.008,0.002,0.015,0.006,0.021,0.012l0.526,0.259c0.021,0.01,0.046,0.031,0.074,0.062c0.028,0.032,0.043,0.053,0.043,0.063
		l0.275,0.81c0.016,0.037,0.023,0.068,0.023,0.094V27.6c0,0.068-0.024,0.127-0.074,0.177s-0.109,0.075-0.177,0.075
		c-0.068,0-0.128-0.025-0.177-0.075c-0.05-0.05-0.075-0.108-0.075-0.177v-2.664l-0.228-0.668l-0.385-0.188h-0.691l-0.448,0.228
		l-0.715,0.699V27.6c0,0.068-0.025,0.127-0.075,0.177s-0.107,0.075-0.173,0.075s-0.123-0.025-0.173-0.075s-0.074-0.108-0.074-0.177
		v-2.664l-0.228-0.668L18.37,24.08h-0.691l-0.447,0.228l-0.708,0.699V27.6c0,0.031-0.006,0.063-0.02,0.094
		c-0.013,0.032-0.031,0.059-0.055,0.083s-0.05,0.042-0.078,0.055c-0.029,0.013-0.062,0.02-0.099,0.02
		c-0.062,0-0.119-0.025-0.169-0.075s-0.074-0.108-0.074-0.177v-3.771c0-0.068,0.025-0.125,0.078-0.173
		c0.021-0.021,0.046-0.039,0.074-0.055C16.211,23.585,16.241,23.577,16.272,23.577z"/>
	<path fill="#949494" d="M29.677,21.691h1.077c0.036,0,0.073,0.008,0.109,0.024l0.534,0.275c0.006,0.005,0.014,0.01,0.024,0.016
		c0.01,0.005,0.021,0.011,0.031,0.016c0.005,0.005,0.01,0.011,0.016,0.016c0.356,0.361,0.545,0.553,0.565,0.574
		c0.005,0.005,0.009,0.011,0.012,0.016c0.003,0.005,0.007,0.011,0.012,0.016l0.26,0.526c0.021,0.042,0.031,0.086,0.031,0.134
		c0,0.063-0.025,0.119-0.074,0.169c-0.051,0.05-0.114,0.075-0.193,0.075c-0.094,0-0.162-0.05-0.204-0.149l-0.251-0.495l-0.479-0.487
		l-0.448-0.228h-0.966l-0.448,0.228l-0.479,0.487l-0.243,0.479l-0.252,0.754v1.281l0.252,0.746l0.243,0.479l0.479,0.487l0.448,0.228
		h0.966l0.448-0.228l0.479-0.487l0.251-0.495c0.021-0.047,0.049-0.083,0.083-0.11s0.074-0.04,0.121-0.04
		c0.084,0,0.149,0.026,0.197,0.079c0.047,0.053,0.07,0.107,0.07,0.165c0,0.047-0.011,0.092-0.031,0.134l-0.26,0.526
		c-0.011,0.021-0.028,0.044-0.055,0.071l-0.534,0.534c-0.006,0.005-0.014,0.012-0.023,0.02c-0.011,0.008-0.021,0.015-0.031,0.02
		c-0.011,0.005-0.019,0.008-0.024,0.008l-0.511,0.259c-0.047,0.026-0.089,0.039-0.125,0.039h-1.077c-0.036,0-0.073-0.01-0.109-0.031
		l-0.542-0.267c-0.021-0.011-0.042-0.026-0.063-0.047l-0.542-0.534c-0.021-0.021-0.037-0.047-0.047-0.079l-0.268-0.526
		c0-0.005-0.003-0.011-0.008-0.016v-0.008c0-0.005,0-0.01,0-0.016l-0.274-0.786c-0.011-0.031-0.017-0.05-0.017-0.055
		c0-0.005,0-0.018,0-0.039v-1.352c0-0.005,0-0.012,0-0.02s0.002-0.016,0.005-0.023c0.002-0.008,0.005-0.016,0.008-0.024
		c0.002-0.008,0.004-0.017,0.004-0.027l0.274-0.793c0-0.005,0.003-0.01,0.008-0.016v-0.008l0.268-0.542
		c0.01-0.021,0.026-0.042,0.047-0.062l0.542-0.542c0.021-0.021,0.042-0.037,0.063-0.047l0.542-0.275
		c0.016-0.011,0.032-0.017,0.051-0.02C29.637,21.693,29.656,21.691,29.677,21.691z"/>
	<path fill="#949494" d="M35.392,23.577h0.841c0.042,0,0.081,0.013,0.118,0.04l0.534,0.259c0.021,0.01,0.042,0.026,0.062,0.047
		l0.542,0.542c0.021,0.021,0.037,0.047,0.048,0.078l0.008,0.008l0.267,0.793c0.016,0.042,0.023,0.071,0.023,0.086
		c0,0.005,0,0.01,0,0.016v0.534c0,0.026-0.005,0.053-0.016,0.079l-0.274,0.81c-0.016,0.047-0.037,0.083-0.063,0.11l-0.534,0.526
		c-0.021,0.021-0.042,0.037-0.062,0.047l-0.526,0.267c-0.042,0.021-0.084,0.031-0.126,0.031h-0.81c-0.036,0-0.076-0.01-0.117-0.031
		l-0.526-0.267c-0.011-0.005-0.021-0.012-0.032-0.02c-0.01-0.008-0.021-0.017-0.031-0.027l-0.542-0.534
		c-0.021-0.021-0.039-0.052-0.055-0.094V26.87l-0.268-0.786c-0.016-0.042-0.023-0.07-0.023-0.086v-0.016v-0.534
		c0-0.026,0.005-0.055,0.016-0.086l0.275-0.801c0.016-0.047,0.039-0.084,0.07-0.11l0.526-0.526l0.063-0.047l0.511-0.259l0.047-0.024
		C35.353,23.583,35.371,23.577,35.392,23.577z M35.486,24.08l-0.448,0.228l-0.472,0.471l-0.235,0.699v0.472l0.235,0.699l0.472,0.479
		l0.448,0.228h0.691l0.447-0.228l0.472-0.479l0.235-0.699v-0.472l-0.235-0.699l-0.472-0.471l-0.447-0.228H35.486z"/>
	<path fill="#949494" d="M39.392,23.577c0.062,0,0.12,0.025,0.173,0.075c0.052,0.05,0.078,0.109,0.078,0.177v0.479l0.385-0.385
		c0.021-0.021,0.042-0.037,0.063-0.047l0.534-0.259c0.031-0.016,0.062-0.029,0.094-0.04c0.006,0,0.01,0,0.012,0
		c0.003,0,0.007,0,0.012,0h0.81c0.037,0,0.076,0.013,0.118,0.04l0.526,0.259c0.068,0.031,0.11,0.081,0.126,0.149l0.267,0.794
		c0.011,0.031,0.016,0.06,0.016,0.086V27.6c0,0.068-0.024,0.127-0.074,0.177s-0.107,0.075-0.173,0.075s-0.123-0.025-0.173-0.075
		s-0.075-0.108-0.075-0.177v-2.664l-0.228-0.668l-0.393-0.188h-0.691l-0.448,0.228l-0.707,0.699V27.6
		c0,0.031-0.007,0.063-0.02,0.094c-0.014,0.032-0.031,0.059-0.055,0.083c-0.024,0.023-0.05,0.042-0.079,0.055
		c-0.028,0.013-0.062,0.02-0.098,0.02c-0.063,0-0.12-0.025-0.169-0.075c-0.051-0.05-0.075-0.108-0.075-0.177v-3.771
		c0-0.068,0.026-0.125,0.079-0.173c0.021-0.021,0.045-0.039,0.074-0.055C39.329,23.585,39.359,23.577,39.392,23.577z"/>
	<path fill="#949494" d="M44.574,21.691c0.062,0,0.12,0.025,0.173,0.075c0.052,0.05,0.078,0.109,0.078,0.177v1.634h0.833
		c0.068,0,0.126,0.026,0.173,0.079s0.07,0.11,0.07,0.173c0,0.068-0.024,0.127-0.074,0.177s-0.106,0.075-0.169,0.075h-0.833v2.412
		l0.22,0.668l0.401,0.196h0.479c0.068,0,0.127,0.025,0.177,0.075s0.075,0.107,0.075,0.173s-0.025,0.123-0.075,0.173
		s-0.108,0.075-0.177,0.075h-0.542c-0.036,0-0.076-0.01-0.117-0.031l-0.519-0.267c-0.074-0.037-0.118-0.084-0.134-0.142
		l-0.268-0.793c-0.011-0.037-0.016-0.063-0.016-0.079c0-0.005,0-0.011,0-0.016V24.08h-0.558c-0.068,0-0.127-0.025-0.177-0.075
		s-0.075-0.108-0.075-0.177c0-0.068,0.025-0.127,0.075-0.177s0.108-0.075,0.177-0.075h0.558v-1.634c0-0.031,0.007-0.063,0.02-0.094
		c0.014-0.031,0.031-0.059,0.056-0.083c0.023-0.023,0.05-0.042,0.078-0.055C44.512,21.698,44.542,21.691,44.574,21.691z"/>
	<path fill="#949494" d="M49.014,23.577h0.81c0.042,0,0.081,0.013,0.118,0.04l0.534,0.259c0.021,0.01,0.042,0.026,0.062,0.047
		l0.268,0.267c0.016,0.016,0.031,0.034,0.047,0.055c0.005,0.005,0.008,0.011,0.008,0.016l0.26,0.534
		c0.016,0.026,0.024,0.046,0.027,0.059c0.002,0.013,0.004,0.03,0.004,0.051v0.542c0,0.068-0.025,0.127-0.075,0.177
		s-0.105,0.075-0.169,0.075h-2.985v0.251l0.235,0.699l0.472,0.479l0.448,0.228h0.691l0.447-0.228l0.519-0.511
		c0.006-0.005,0.012-0.012,0.02-0.02s0.017-0.014,0.024-0.02c0.008-0.005,0.017-0.009,0.027-0.012
		c0.01-0.002,0.02-0.006,0.027-0.012s0.017-0.009,0.027-0.012c0.011-0.003,0.021-0.004,0.031-0.004c0.037,0,0.071,0.008,0.103,0.023
		s0.058,0.034,0.078,0.055c0.021,0.021,0.04,0.047,0.056,0.079c0.016,0.031,0.023,0.062,0.023,0.094c0,0.031-0.006,0.062-0.016,0.09
		c-0.011,0.029-0.026,0.056-0.048,0.083c0,0.005-0.002,0.008-0.008,0.008l-0.542,0.534c-0.021,0.021-0.042,0.037-0.062,0.047
		l-0.526,0.267c-0.042,0.021-0.084,0.031-0.126,0.031h-0.81c-0.036,0-0.076-0.01-0.117-0.031l-0.526-0.267
		c-0.011-0.005-0.021-0.012-0.032-0.02c-0.01-0.008-0.021-0.017-0.031-0.027l-0.542-0.534c-0.021-0.021-0.039-0.052-0.055-0.094
		V26.87l-0.268-0.786c-0.016-0.042-0.023-0.07-0.023-0.086v-0.016v-0.534c0-0.031,0.008-0.065,0.023-0.102l0.268-0.786
		c0.016-0.047,0.039-0.084,0.07-0.11l0.526-0.526c0.011-0.01,0.02-0.02,0.027-0.027s0.02-0.015,0.036-0.02l0.526-0.259
		c0.025-0.021,0.047-0.033,0.062-0.036C48.975,23.579,48.993,23.577,49.014,23.577z M49.077,24.08l-0.448,0.228l-0.472,0.471
		l-0.142,0.417h2.641v-0.228l-0.228-0.448l-0.213-0.212l-0.447-0.228H49.077z"/>
	<path fill="#949494" d="M53.111,23.577c0.062,0,0.12,0.025,0.173,0.075s0.078,0.109,0.078,0.177v0.479l0.386-0.385
		c0.021-0.021,0.042-0.037,0.062-0.047l0.534-0.259c0.031-0.016,0.063-0.029,0.095-0.04c0.005,0,0.009,0,0.012,0
		c0.002,0,0.006,0,0.012,0h0.81c0.036,0,0.075,0.013,0.117,0.04l0.526,0.259c0.026,0.016,0.053,0.037,0.079,0.062
		c0.026,0.026,0.042,0.055,0.047,0.086l0.142,0.417l0.526-0.519c0.021-0.021,0.047-0.037,0.078-0.047l0.519-0.259
		c0.021-0.011,0.037-0.019,0.048-0.024c0.01-0.005,0.026-0.01,0.047-0.016c0.005,0,0.013,0,0.023,0h0.81
		c0.011,0,0.022,0.001,0.035,0.004c0.013,0.003,0.024,0.007,0.035,0.012c0.011,0.005,0.02,0.009,0.027,0.012
		c0.008,0.002,0.015,0.006,0.021,0.012l0.526,0.259c0.021,0.01,0.046,0.031,0.074,0.062c0.028,0.032,0.043,0.053,0.043,0.063
		l0.275,0.81c0.016,0.037,0.023,0.068,0.023,0.094V27.6c0,0.068-0.024,0.127-0.074,0.177s-0.109,0.075-0.177,0.075
		c-0.068,0-0.128-0.025-0.177-0.075c-0.05-0.05-0.075-0.108-0.075-0.177v-2.664l-0.228-0.668L58.18,24.08h-0.691l-0.448,0.228
		l-0.715,0.699V27.6c0,0.068-0.025,0.127-0.075,0.177s-0.107,0.075-0.173,0.075s-0.123-0.025-0.173-0.075S55.83,27.668,55.83,27.6
		v-2.664l-0.228-0.668l-0.394-0.188h-0.691l-0.447,0.228l-0.708,0.699V27.6c0,0.031-0.006,0.063-0.02,0.094
		c-0.013,0.032-0.031,0.059-0.055,0.083s-0.05,0.042-0.078,0.055c-0.029,0.013-0.062,0.02-0.099,0.02
		c-0.062,0-0.119-0.025-0.169-0.075s-0.074-0.108-0.074-0.177v-3.771c0-0.068,0.025-0.125,0.078-0.173
		c0.021-0.021,0.046-0.039,0.074-0.055C53.05,23.585,53.08,23.577,53.111,23.577z"/>
	<path fill="#949494" d="M61.472,23.577c0.062,0,0.12,0.025,0.173,0.075s0.078,0.109,0.078,0.177v0.212l0.118-0.118
		c0.011-0.01,0.02-0.02,0.027-0.027s0.02-0.015,0.036-0.02l0.534-0.259c0.025-0.016,0.052-0.029,0.078-0.04c0.011,0,0.021,0,0.031,0
		h0.81c0.042,0,0.081,0.013,0.118,0.04l0.534,0.259c0.021,0.01,0.042,0.026,0.062,0.047l0.542,0.542
		c0.021,0.021,0.037,0.047,0.048,0.078l0.008,0.008l0.267,0.793c0.016,0.042,0.023,0.071,0.023,0.086c0,0.005,0,0.01,0,0.016v0.534
		c0,0.026-0.005,0.053-0.016,0.079l-0.274,0.81c-0.016,0.047-0.037,0.083-0.063,0.11l-0.534,0.526
		c-0.021,0.021-0.042,0.037-0.062,0.047l-0.526,0.267c-0.042,0.021-0.084,0.031-0.126,0.031h-0.81c-0.036,0-0.076-0.01-0.117-0.031
		l-0.526-0.267c-0.011-0.005-0.021-0.012-0.032-0.02c-0.01-0.008-0.021-0.017-0.031-0.027l-0.118-0.118v2.105
		c0,0.068-0.025,0.126-0.078,0.173c-0.053,0.047-0.11,0.071-0.173,0.071c-0.016,0-0.031-0.001-0.047-0.004
		c-0.016-0.003-0.03-0.008-0.044-0.016c-0.013-0.008-0.025-0.017-0.039-0.028c-0.013-0.01-0.024-0.021-0.035-0.031
		c-0.021-0.021-0.039-0.046-0.055-0.075s-0.023-0.059-0.023-0.09v-5.665c0-0.068,0.025-0.125,0.078-0.173
		c0.021-0.021,0.046-0.039,0.074-0.055C61.41,23.585,61.44,23.577,61.472,23.577z M62.611,24.08l-0.448,0.228l-0.44,0.432v1.957
		l0.44,0.432l0.448,0.228h0.691l0.447-0.228l0.472-0.479l0.235-0.699v-0.472l-0.235-0.699l-0.472-0.471l-0.447-0.228H62.611z"/>
	<path fill="#949494" d="M67.796,23.577h0.841c0.042,0,0.081,0.013,0.118,0.04l0.534,0.259c0.021,0.01,0.042,0.026,0.062,0.047
		l0.542,0.542c0.021,0.021,0.037,0.047,0.048,0.078l0.008,0.008l0.267,0.793c0.016,0.042,0.023,0.071,0.023,0.086
		c0,0.005,0,0.01,0,0.016v0.534c0,0.026-0.005,0.053-0.016,0.079l-0.274,0.81c-0.016,0.047-0.037,0.083-0.063,0.11l-0.534,0.526
		c-0.021,0.021-0.042,0.037-0.062,0.047l-0.526,0.267c-0.042,0.021-0.084,0.031-0.126,0.031h-0.81c-0.036,0-0.076-0.01-0.117-0.031
		l-0.526-0.267c-0.011-0.005-0.021-0.012-0.032-0.02c-0.01-0.008-0.021-0.017-0.031-0.027l-0.542-0.534
		c-0.021-0.021-0.039-0.052-0.055-0.094V26.87l-0.268-0.786c-0.016-0.042-0.023-0.07-0.023-0.086v-0.016v-0.534
		c0-0.026,0.005-0.055,0.016-0.086l0.275-0.801c0.016-0.047,0.039-0.084,0.07-0.11l0.526-0.526l0.063-0.047l0.511-0.259l0.047-0.024
		C67.757,23.583,67.775,23.577,67.796,23.577z M67.891,24.08l-0.448,0.228l-0.472,0.471l-0.235,0.699v0.472l0.235,0.699l0.472,0.479
		l0.448,0.228h0.691l0.447-0.228l0.472-0.479l0.235-0.699v-0.472l-0.235-0.699l-0.472-0.471l-0.447-0.228H67.891z"/>
	<path fill="#949494" d="M72.556,24.308l0.386-0.385c0.021-0.021,0.042-0.037,0.062-0.047l0.534-0.259
		c0.031-0.016,0.063-0.029,0.095-0.04c0.005,0,0.009,0,0.012,0c0.002,0,0.006,0,0.012,0h0.81c0.067,0,0.125,0.026,0.173,0.079
		c0.047,0.052,0.07,0.11,0.07,0.173c0,0.068-0.024,0.127-0.074,0.177s-0.106,0.075-0.169,0.075h-0.755l-0.447,0.228l-0.472,0.471
		l-0.236,0.699V27.6c0,0.031-0.006,0.063-0.02,0.094c-0.013,0.032-0.031,0.059-0.055,0.083s-0.05,0.042-0.078,0.055
		c-0.029,0.013-0.062,0.02-0.099,0.02c-0.062,0-0.119-0.025-0.169-0.075s-0.074-0.108-0.074-0.177v-3.771
		c0-0.068,0.025-0.125,0.078-0.173c0.021-0.021,0.046-0.039,0.074-0.055c0.029-0.016,0.06-0.023,0.091-0.023
		c0.062,0,0.12,0.025,0.173,0.075s0.078,0.109,0.078,0.177V24.308z"/>
	<path fill="#949494" d="M78.688,23.652c0.05-0.05,0.074-0.075,0.074-0.075s0.033,0,0.099,0s0.123,0.025,0.173,0.075
		s0.074,0.109,0.074,0.177V27.6c0,0.068-0.024,0.127-0.074,0.177s-0.107,0.075-0.173,0.075s-0.123-0.025-0.173-0.075
		s-0.075-0.108-0.075-0.177v-0.212l-0.117,0.118c-0.021,0.021-0.042,0.037-0.063,0.047l-0.526,0.267
		c-0.042,0.021-0.084,0.031-0.125,0.031h-0.81c-0.037,0-0.076-0.01-0.118-0.031l-0.526-0.267c-0.011-0.005-0.021-0.012-0.031-0.02
		s-0.021-0.017-0.031-0.027l-0.542-0.534c-0.021-0.021-0.04-0.052-0.056-0.094V26.87L75.4,26.083
		c-0.016-0.042-0.024-0.07-0.024-0.086v-0.016v-0.534c0-0.026,0.006-0.055,0.017-0.086l0.274-0.801
		c0.016-0.047,0.039-0.084,0.071-0.11l0.526-0.526c0.01-0.01,0.02-0.02,0.027-0.027s0.02-0.015,0.035-0.02l0.534-0.259
		c0.026-0.016,0.053-0.029,0.079-0.04c0.01,0,0.021,0,0.031,0h0.81c0.041,0,0.081,0.013,0.117,0.04l0.534,0.259
		c0.021,0.01,0.042,0.026,0.063,0.047l0.117,0.118v-0.212C78.613,23.761,78.639,23.702,78.688,23.652z M77.034,24.08l-0.447,0.228
		l-0.472,0.471l-0.236,0.699v0.472l0.236,0.699l0.472,0.479l0.447,0.228h0.691l0.448-0.228l0.439-0.432V24.74l-0.439-0.432
		l-0.448-0.228H77.034z"/>
	<path fill="#949494" d="M81.021,24.308l0.385-0.385c0.021-0.021,0.042-0.037,0.063-0.047l0.534-0.259
		c0.031-0.016,0.062-0.029,0.094-0.04c0.006,0,0.01,0,0.012,0c0.003,0,0.007,0,0.012,0h0.81c0.068,0,0.126,0.026,0.173,0.079
		s0.071,0.11,0.071,0.173c0,0.068-0.025,0.127-0.075,0.177s-0.106,0.075-0.169,0.075h-0.754l-0.448,0.228l-0.472,0.471l-0.235,0.699
		V27.6c0,0.031-0.007,0.063-0.02,0.094c-0.014,0.032-0.031,0.059-0.055,0.083c-0.024,0.023-0.05,0.042-0.079,0.055
		c-0.028,0.013-0.062,0.02-0.098,0.02c-0.063,0-0.12-0.025-0.169-0.075c-0.051-0.05-0.075-0.108-0.075-0.177v-3.771
		c0-0.068,0.026-0.125,0.079-0.173c0.021-0.021,0.045-0.039,0.074-0.055c0.028-0.016,0.059-0.023,0.091-0.023
		c0.062,0,0.12,0.025,0.173,0.075c0.052,0.05,0.078,0.109,0.078,0.177V24.308z"/>
	<path fill="#949494" d="M87.531,23.569c0.068,0,0.126,0.026,0.173,0.079c0.048,0.052,0.071,0.107,0.071,0.165
		c0,0.042-0.008,0.079-0.023,0.11l-1.604,3.74c0,0.005-0.003,0.013-0.008,0.023c0,0.016-0.005,0.031-0.016,0.047l-0.534,1.053
		c-0.005,0.016-0.016,0.034-0.031,0.055c-0.006,0.005-0.011,0.01-0.016,0.016c-0.361,0.356-0.553,0.544-0.574,0.565
		c-0.01,0.011-0.021,0.019-0.031,0.024l-0.534,0.259c-0.037,0.021-0.073,0.031-0.11,0.031H84.02c-0.068,0-0.126-0.026-0.173-0.079
		s-0.071-0.11-0.071-0.173s0.025-0.119,0.075-0.169s0.105-0.075,0.169-0.075h0.212l0.448-0.228l0.486-0.479l0.464-0.943
		l-1.563-3.654c-0.021-0.037-0.028-0.076-0.023-0.118c0-0.058,0.023-0.113,0.07-0.165c0.048-0.052,0.105-0.079,0.173-0.079h0.008
		c0.105,0,0.181,0.055,0.229,0.165l1.383,3.222l1.398-3.237c0-0.005,0.003-0.008,0.008-0.008c0.047-0.089,0.112-0.139,0.196-0.149
		c0.005,0,0.011,0,0.016,0H87.531z"/>
	<path fill="#949494" d="M93.343,21.691c0.026,0,0.054,0.005,0.083,0.016c0.028,0.011,0.053,0.024,0.07,0.04
		c0.019,0.016,0.034,0.035,0.048,0.059c0.013,0.023,0.021,0.048,0.027,0.074l2.152,5.642c0.006,0.011,0.008,0.023,0.008,0.04
		c0,0.016,0,0.034,0,0.055c0,0.063-0.024,0.119-0.074,0.169s-0.116,0.075-0.2,0.075c-0.037,0-0.071-0.009-0.103-0.027
		c-0.031-0.019-0.057-0.041-0.074-0.067c-0.019-0.026-0.03-0.052-0.035-0.079l-0.652-1.721h-2.538l-0.645,1.721
		c-0.011,0.052-0.035,0.094-0.074,0.126c-0.039,0.031-0.085,0.047-0.138,0.047c-0.089,0-0.157-0.026-0.204-0.079
		c-0.047-0.052-0.071-0.11-0.071-0.173c0-0.047,0.006-0.081,0.016-0.102l2.146-5.634c0.011-0.037,0.022-0.065,0.035-0.086
		c0.014-0.021,0.033-0.039,0.06-0.055c0.041-0.026,0.075-0.04,0.102-0.04H93.343z M93.327,22.642l-1.068,2.829h2.138L93.327,22.642z
		"/>
	<path fill="#949494" d="M97.179,23.577c0.062,0,0.12,0.025,0.173,0.075s0.078,0.109,0.078,0.177v0.479l0.386-0.385
		c0.021-0.021,0.042-0.037,0.062-0.047l0.534-0.259c0.031-0.016,0.063-0.029,0.095-0.04c0.005,0,0.009,0,0.012,0
		c0.002,0,0.006,0,0.012,0h0.81c0.036,0,0.075,0.013,0.117,0.04l0.526,0.259c0.068,0.031,0.11,0.081,0.126,0.149l0.268,0.794
		c0.01,0.031,0.016,0.06,0.016,0.086V27.6c0,0.068-0.025,0.127-0.075,0.177s-0.107,0.075-0.173,0.075s-0.123-0.025-0.173-0.075
		s-0.074-0.108-0.074-0.177v-2.664l-0.228-0.668l-0.394-0.188h-0.691l-0.447,0.228l-0.708,0.699V27.6
		c0,0.031-0.006,0.063-0.02,0.094c-0.013,0.032-0.031,0.059-0.055,0.083s-0.05,0.042-0.078,0.055
		c-0.029,0.013-0.062,0.02-0.099,0.02c-0.062,0-0.119-0.025-0.169-0.075s-0.074-0.108-0.074-0.177v-3.771
		c0-0.068,0.025-0.125,0.078-0.173c0.021-0.021,0.046-0.039,0.074-0.055C97.117,23.585,97.147,23.577,97.179,23.577z"/>
	<path fill="#949494" d="M104.84,23.652c0.05-0.05,0.107-0.075,0.173-0.075s0.123,0.025,0.173,0.075s0.074,0.109,0.074,0.177v4.313
		c0,0.016-0.001,0.03-0.004,0.043s-0.007,0.027-0.012,0.043l-0.267,0.794c-0.016,0.047-0.042,0.086-0.079,0.118l-0.283,0.283
		c-0.01,0.011-0.021,0.019-0.031,0.024l-0.534,0.259c-0.042,0.021-0.081,0.031-0.117,0.031h-0.81c-0.037,0-0.076-0.011-0.118-0.031
		l-0.526-0.259c-0.104-0.042-0.154-0.113-0.149-0.212c0-0.084,0.026-0.149,0.079-0.196c0.052-0.047,0.109-0.068,0.173-0.063
		c0.021,0,0.043,0.002,0.066,0.008s0.043,0.013,0.059,0.023l0.479,0.236h0.691l0.448-0.228l0.204-0.205l0.235-0.699v-0.723
		l-0.117,0.118c-0.021,0.021-0.042,0.037-0.063,0.047l-0.526,0.267c-0.042,0.021-0.084,0.031-0.125,0.031h-0.81
		c-0.037,0-0.076-0.01-0.118-0.031l-0.526-0.267c-0.011-0.005-0.021-0.012-0.031-0.02s-0.021-0.017-0.031-0.027l-0.542-0.534
		c-0.021-0.021-0.04-0.052-0.056-0.094V26.87l-0.267-0.786c-0.016-0.042-0.024-0.07-0.024-0.086v-0.016v-0.534
		c0-0.026,0.006-0.055,0.017-0.086l0.274-0.801c0.016-0.047,0.039-0.084,0.071-0.11l0.526-0.526c0.01-0.01,0.02-0.02,0.027-0.027
		s0.02-0.015,0.035-0.02l0.534-0.259c0.026-0.016,0.053-0.029,0.079-0.04c0.01,0,0.021,0,0.031,0h0.81
		c0.041,0,0.081,0.013,0.117,0.04l0.534,0.259c0.021,0.01,0.042,0.026,0.063,0.047l0.117,0.118v-0.212
		C104.765,23.761,104.79,23.702,104.84,23.652z M103.186,24.08l-0.447,0.228l-0.472,0.471l-0.236,0.699v0.472l0.236,0.699
		l0.472,0.479l0.447,0.228h0.691l0.448-0.228l0.439-0.432V24.74l-0.439-0.432l-0.448-0.228H103.186z"/>
	<path fill="#949494" d="M107.61,21.691c0.063,0,0.121,0.025,0.173,0.075c0.053,0.05,0.079,0.109,0.079,0.177V27.6
		c0,0.031-0.007,0.063-0.02,0.094c-0.014,0.032-0.032,0.059-0.056,0.083s-0.05,0.042-0.078,0.055
		c-0.029,0.013-0.062,0.02-0.099,0.02c-0.062,0-0.119-0.025-0.169-0.075s-0.074-0.108-0.074-0.177v-5.657
		c0-0.068,0.023-0.125,0.07-0.173c0.021-0.021,0.047-0.039,0.079-0.055C107.548,21.699,107.579,21.691,107.61,21.691z"/>
	<path fill="#949494" d="M111.142,23.577h0.81c0.041,0,0.081,0.013,0.117,0.04l0.534,0.259c0.021,0.01,0.042,0.026,0.063,0.047
		l0.267,0.267c0.016,0.016,0.031,0.034,0.048,0.055c0.005,0.005,0.008,0.011,0.008,0.016l0.259,0.534
		c0.016,0.026,0.024,0.046,0.027,0.059s0.004,0.03,0.004,0.051v0.542c0,0.068-0.024,0.127-0.074,0.177s-0.106,0.075-0.169,0.075
		h-2.986v0.251l0.236,0.699l0.472,0.479l0.447,0.228h0.691l0.448-0.228l0.519-0.511c0.005-0.005,0.012-0.012,0.02-0.02
		s0.016-0.014,0.023-0.02c0.008-0.005,0.017-0.009,0.027-0.012c0.011-0.002,0.02-0.006,0.027-0.012s0.018-0.009,0.028-0.012
		c0.01-0.003,0.021-0.004,0.031-0.004c0.036,0,0.07,0.008,0.102,0.023c0.032,0.016,0.058,0.034,0.079,0.055
		c0.021,0.021,0.039,0.047,0.055,0.079c0.016,0.031,0.023,0.062,0.023,0.094c0,0.031-0.005,0.062-0.016,0.09
		s-0.026,0.056-0.047,0.083c0,0.005-0.003,0.008-0.008,0.008l-0.542,0.534c-0.021,0.021-0.042,0.037-0.063,0.047l-0.526,0.267
		c-0.042,0.021-0.084,0.031-0.125,0.031h-0.81c-0.037,0-0.076-0.01-0.118-0.031l-0.526-0.267c-0.011-0.005-0.021-0.012-0.031-0.02
		s-0.021-0.017-0.031-0.027l-0.542-0.534c-0.021-0.021-0.04-0.052-0.056-0.094V26.87l-0.267-0.786
		c-0.016-0.042-0.024-0.07-0.024-0.086v-0.016v-0.534c0-0.031,0.009-0.065,0.024-0.102l0.267-0.786
		c0.016-0.047,0.039-0.084,0.071-0.11l0.526-0.526c0.01-0.01,0.02-0.02,0.027-0.027s0.02-0.015,0.035-0.02l0.526-0.259
		c0.026-0.021,0.047-0.033,0.062-0.036C111.103,23.579,111.12,23.577,111.142,23.577z M111.204,24.08l-0.447,0.228l-0.472,0.471
		l-0.142,0.417h2.64v-0.228l-0.228-0.448l-0.212-0.212l-0.448-0.228H111.204z"/>
	<path fill="#949494" d="M116.048,23.577h0.81c0.016,0,0.03,0.001,0.043,0.004c0.014,0.003,0.033,0.009,0.06,0.02l0.785,0.268
		c0.058,0.021,0.104,0.065,0.142,0.133l0.268,0.511c0.025,0.047,0.036,0.086,0.031,0.118c0,0.005,0,0.011,0,0.016
		c0,0.062-0.025,0.121-0.075,0.173s-0.113,0.079-0.192,0.079c-0.094,0-0.162-0.05-0.204-0.149l-0.22-0.448l-0.668-0.22h-0.747
		l-0.667,0.22l-0.157,0.338l0.173,0.354l0.439,0.22l1.336,0.267l0.047,0.024l0.526,0.259l0.031,0.023
		c0.011,0.011,0.021,0.022,0.032,0.035c0.01,0.013,0.021,0.025,0.031,0.036c0.005,0.005,0.008,0.013,0.008,0.023l0.275,0.534
		c0.021,0.037,0.031,0.074,0.031,0.11v0.267c0,0.042-0.011,0.083-0.031,0.125l-0.268,0.519c-0.011,0.021-0.022,0.042-0.035,0.063
		c-0.014,0.021-0.029,0.037-0.048,0.047c-0.018,0.011-0.038,0.019-0.059,0.024l-0.81,0.267c-0.025,0.01-0.052,0.016-0.078,0.016
		h-0.81c-0.026,0-0.055-0.005-0.086-0.016l-0.794-0.267c-0.062-0.016-0.115-0.063-0.157-0.142l-0.259-0.511
		c-0.021-0.042-0.032-0.086-0.032-0.133c0-0.063,0.025-0.119,0.075-0.169s0.114-0.075,0.192-0.075c0.095,0,0.162,0.05,0.204,0.149
		l0.221,0.44l0.667,0.228h0.747l0.668-0.228l0.196-0.393v-0.149l-0.212-0.417l-0.44-0.22l-1.305-0.251
		c-0.005,0-0.01-0.002-0.016-0.008c-0.01-0.005-0.019-0.009-0.023-0.012c-0.005-0.003-0.012-0.005-0.02-0.008
		c-0.008-0.003-0.017-0.009-0.027-0.02l-0.511-0.251c-0.005-0.005-0.014-0.01-0.023-0.016c-0.031-0.026-0.058-0.052-0.079-0.079
		l-0.016-0.023l-0.274-0.534c-0.021-0.037-0.029-0.076-0.024-0.118c0-0.021,0.003-0.041,0.009-0.059
		c0.005-0.019,0.013-0.038,0.023-0.059l0.267-0.511c0.016-0.026,0.033-0.05,0.052-0.071c0.018-0.021,0.032-0.035,0.043-0.043
		c0.01-0.008,0.021-0.012,0.031-0.012l0.81-0.283C115.99,23.583,116.021,23.577,116.048,23.577z"/>
</g>
<text transform="matrix(1 0 0 1 310.8013 102.7915)" fill="#949494" font-family="'YuGo-Medium-83pv-RKSJ-H'" font-size="11.037">記録：着物を考えるための調べもの</text>
<text transform="matrix(1 0 0 1 310.8013 119.5864)"><tspan x="0" y="0" fill="#949494" font-family="'Hershey-Futural-30'" font-size="12">Re</tspan><tspan x="15.246" y="0" fill="#949494" font-family="'Hershey-Futural-30'" font-size="12">t</tspan><tspan x="20.416" y="0" fill="#949494" font-family="'Hershey-Futural-30'" font-size="12">hinking</tspan><tspan x="65.333" y="0" fill="#949494" font-family="'Hershey-Futural-30'" font-size="12" letter-spacing="-1"> </tspan><tspan x="69.824" y="0" fill="#949494" font-family="'Hershey-Futural-30'" font-size="12">K</tspan><tspan x="78.187" y="0" fill="#949494" font-family="'Hershey-Futural-30'" font-size="12">imo</tspan><tspan x="101.46" y="0" fill="#949494" font-family="'Hershey-Futural-30'" font-size="12">n</tspan><tspan x="109.2" y="0" fill="#949494" font-family="'Hershey-Futural-30'" font-size="12">o</tspan><tspan x="117.227" y="0" fill="#949494" font-family="'Hershey-Futural-30'" font-size="12" letter-spacing="-2"> </tspan><tspan x="121.477" y="0" fill="#949494" font-family="'Hershey-Futural-30'" font-size="12">from</tspan><tspan x="151.969" y="0" fill="#949494" font-family="'Hershey-Futural-30'" font-size="12"> </tspan><tspan x="157.899" y="0" fill="#949494" font-family="'Hershey-Futural-30'" font-size="12">C</tspan><tspan x="166.724" y="0" fill="#949494" font-family="'Hershey-Futural-30'" font-size="12">o</tspan><tspan x="174.248" y="0" fill="#949494" font-family="'Hershey-Futural-30'" font-size="12">n</tspan><tspan x="181.579" y="0" fill="#949494" font-family="'Hershey-Futural-30'" font-size="12">tempor</tspan><tspan x="226.508" y="0" fill="#949494" font-family="'Hershey-Futural-30'" font-size="12">a</tspan><tspan x="233.779" y="0" fill="#949494" font-family="'Hershey-Futural-30'" font-size="12" letter-spacing="1">r</tspan><tspan x="239.832" y="0" fill="#949494" font-family="'Hershey-Futural-30'" font-size="12" letter-spacing="-2">y</tspan><tspan x="244.082" y="0" fill="#949494" font-family="'Hershey-Futural-30'" font-size="12"> A</tspan><tspan x="257.71" y="0" fill="#949494" font-family="'Hershey-Futural-30'" font-size="12">n</tspan><tspan x="264.97" y="0" fill="#949494" font-family="'Hershey-Futural-30'" font-size="12">gles</tspan></text>
<text transform="matrix(1 0 0 1 2.8828 194.2866)" fill="#949494" font-family="'YuGo-Medium-83pv-RKSJ-H'" font-size="11.037">閉じる</text>
<text transform="matrix(1 0 0 1 2.1709 209.0815)" fill="#949494" font-family="'Hershey-Futural-30'" font-size="12">Close</text>
<text transform="matrix(1 0 0 1 78.8838 194.2866)" fill="#949494" font-family="'YuGo-Medium-83pv-RKSJ-H'" font-size="11.037">閉じる</text>
<text transform="matrix(1 0 0 1 78.1719 209.0815)" fill="#949494" font-family="'Hershey-Futural-30'" font-size="12">Close</text>
<text transform="matrix(1 0 0 1 159.0127 194.2866)"><tspan x="0" y="0" fill="#949494" font-family="'YuGo-Medium-83pv-RKSJ-H'" font-size="11.037" letter-spacing="-2">ト</tspan><tspan x="8.83" y="0" fill="#949494" font-family="'YuGo-Medium-83pv-RKSJ-H'" font-size="11.037" letter-spacing="-1">ッ</tspan><tspan x="18.542" y="0" fill="#949494" font-family="'YuGo-Medium-83pv-RKSJ-H'" font-size="11.037">プページへもどる</tspan></text>
<text transform="matrix(1 0 0 1 161.6313 209.0815)"><tspan x="0" y="0" fill="#949494" font-family="'Hershey-Futural-30'" font-size="12">Back</tspan><tspan x="29.684" y="0" fill="#949494" font-family="'Hershey-Futural-30'" font-size="12" letter-spacing="-1"> </tspan><tspan x="34.414" y="0" fill="#949494" font-family="'Hershey-Futural-30'" font-size="12">to</tspan><tspan x="48.054" y="0" fill="#949494" font-family="'Hershey-Futural-30'" font-size="12" letter-spacing="-3"> </tspan><tspan x="51.104" y="0" fill="#949494" font-family="'Hershey-Futural-30'" font-size="12">Top</tspan></text>
<text transform="matrix(1 0 0 1 338.0127 194.2866)"><tspan x="0" y="0" fill="#949494" font-family="'YuGo-Medium-83pv-RKSJ-H'" font-size="11.037" letter-spacing="-2">ト</tspan><tspan x="8.83" y="0" fill="#949494" font-family="'YuGo-Medium-83pv-RKSJ-H'" font-size="11.037" letter-spacing="-1">ッ</tspan><tspan x="18.542" y="0" fill="#949494" font-family="'YuGo-Medium-83pv-RKSJ-H'" font-size="11.037">プページへもどる</tspan></text>
<text transform="matrix(1 0 0 1 340.6313 209.0815)"><tspan x="0" y="0" fill="#949494" font-family="'Hershey-Futural-30'" font-size="12">Back</tspan><tspan x="29.684" y="0" fill="#949494" font-family="'Hershey-Futural-30'" font-size="12" letter-spacing="-1"> </tspan><tspan x="34.414" y="0" fill="#949494" font-family="'Hershey-Futural-30'" font-size="12">to</tspan><tspan x="48.054" y="0" fill="#949494" font-family="'Hershey-Futural-30'" font-size="12" letter-spacing="-3"> </tspan><tspan x="51.104" y="0" fill="#949494" font-family="'Hershey-Futural-30'" font-size="12">Top</tspan></text>
<text transform="matrix(1 0 0 1 178.396 276.1621)" font-family="'YuGo-Medium-83pv-RKSJ-H'" font-size="12">#fff9bf</text>
<text transform="matrix(1 0 0 1 178.396 257.1621)" font-family="'YuGo-Medium-83pv-RKSJ-H'" font-size="12">148, 148, 148</text>
<g>
	<g>
		<g>
			<path fill="#949494" d="M7.023,298.614c-0.125,0-0.223-0.035-0.293-0.105c-0.016-0.016-0.035-0.047-0.059-0.094
				c-0.047-0.07-0.07-0.148-0.07-0.234v-7.43c0-0.055,0.012-0.107,0.035-0.158s0.055-0.096,0.094-0.135
				c0.016-0.016,0.035-0.033,0.059-0.053s0.047-0.035,0.07-0.047s0.051-0.02,0.082-0.023s0.059-0.006,0.082-0.006
				c0.109,0,0.207,0.043,0.293,0.129s0.129,0.184,0.129,0.293v7.02h7.562c0.055,0,0.107,0.012,0.158,0.035s0.096,0.055,0.135,0.094
				s0.07,0.084,0.094,0.135s0.035,0.104,0.035,0.158c0,0.109-0.043,0.207-0.129,0.293s-0.184,0.129-0.293,0.129H7.023z"/>
		</g>
	</g>
</g>
<g>
	<g>
		<g>
			<path fill="#949494" d="M23.19,298.614c-0.109,0-0.207-0.043-0.293-0.129s-0.129-0.184-0.129-0.293
				c0-0.055,0.012-0.107,0.035-0.158s0.055-0.096,0.094-0.135s0.084-0.07,0.135-0.094s0.104-0.035,0.158-0.035h7.562v-7.02
				c0-0.109,0.043-0.207,0.129-0.293s0.184-0.129,0.293-0.129c0.023,0,0.051,0.002,0.082,0.006s0.059,0.012,0.082,0.023
				s0.047,0.027,0.07,0.047s0.043,0.037,0.059,0.053c0.039,0.039,0.07,0.084,0.094,0.135s0.035,0.104,0.035,0.158v7.43
				c0,0.086-0.023,0.164-0.07,0.234c-0.023,0.047-0.043,0.078-0.059,0.094c-0.07,0.07-0.168,0.105-0.293,0.105H23.19z"/>
		</g>
	</g>
</g>
<g>
	<g>
		<g>
			<path fill="#949494" d="M31.174,277.495c0.125,0,0.223,0.035,0.293,0.105c0.016,0.016,0.035,0.047,0.059,0.094
				c0.047,0.07,0.07,0.148,0.07,0.234v7.43c0,0.055-0.012,0.107-0.035,0.158s-0.055,0.096-0.094,0.135
				c-0.016,0.016-0.035,0.033-0.059,0.053s-0.047,0.035-0.07,0.047s-0.051,0.02-0.082,0.023s-0.059,0.006-0.082,0.006
				c-0.109,0-0.207-0.043-0.293-0.129s-0.129-0.184-0.129-0.293v-7.02H23.19c-0.055,0-0.107-0.012-0.158-0.035
				s-0.096-0.055-0.135-0.094s-0.07-0.084-0.094-0.135s-0.035-0.104-0.035-0.158c0-0.109,0.043-0.207,0.129-0.293
				s0.184-0.129,0.293-0.129H31.174z"/>
		</g>
	</g>
</g>
<g>
	<g>
		<g>
			<path fill="#949494" d="M15.008,277.495c0.109,0,0.207,0.043,0.293,0.129s0.129,0.184,0.129,0.293
				c0,0.055-0.012,0.107-0.035,0.158s-0.055,0.096-0.094,0.135s-0.084,0.07-0.135,0.094s-0.104,0.035-0.158,0.035H7.445v7.02
				c0,0.109-0.043,0.207-0.129,0.293s-0.184,0.129-0.293,0.129c-0.023,0-0.051-0.002-0.082-0.006s-0.059-0.012-0.082-0.023
				s-0.047-0.027-0.07-0.047s-0.043-0.037-0.059-0.053c-0.039-0.039-0.07-0.084-0.094-0.135s-0.035-0.104-0.035-0.158v-7.43
				c0-0.086,0.023-0.164,0.07-0.234c0.023-0.047,0.043-0.078,0.059-0.094c0.07-0.07,0.168-0.105,0.293-0.105H15.008z"/>
		</g>
	</g>
</g>
<g>
	<g>
		<g>
			<path fill="#FFF9BF" d="M67.023,298.614c-0.125,0-0.223-0.035-0.293-0.105c-0.016-0.016-0.035-0.047-0.059-0.094
				c-0.047-0.07-0.07-0.148-0.07-0.234v-7.43c0-0.055,0.012-0.107,0.035-0.158s0.055-0.096,0.094-0.135
				c0.016-0.016,0.035-0.033,0.059-0.053s0.047-0.035,0.07-0.047s0.051-0.02,0.082-0.023s0.059-0.006,0.082-0.006
				c0.109,0,0.207,0.043,0.293,0.129s0.129,0.184,0.129,0.293v7.02h7.562c0.055,0,0.107,0.012,0.158,0.035s0.096,0.055,0.135,0.094
				s0.07,0.084,0.094,0.135s0.035,0.104,0.035,0.158c0,0.109-0.043,0.207-0.129,0.293s-0.184,0.129-0.293,0.129H67.023z"/>
		</g>
	</g>
</g>
<g>
	<g>
		<g>
			<path fill="#FFF9BF" d="M83.19,298.614c-0.109,0-0.207-0.043-0.293-0.129s-0.129-0.184-0.129-0.293
				c0-0.055,0.012-0.107,0.035-0.158s0.055-0.096,0.094-0.135s0.084-0.07,0.135-0.094s0.104-0.035,0.158-0.035h7.562v-7.02
				c0-0.109,0.043-0.207,0.129-0.293s0.184-0.129,0.293-0.129c0.023,0,0.051,0.002,0.082,0.006s0.059,0.012,0.082,0.023
				s0.047,0.027,0.07,0.047s0.043,0.037,0.059,0.053c0.039,0.039,0.07,0.084,0.094,0.135s0.035,0.104,0.035,0.158v7.43
				c0,0.086-0.023,0.164-0.07,0.234c-0.023,0.047-0.043,0.078-0.059,0.094c-0.07,0.07-0.168,0.105-0.293,0.105H83.19z"/>
		</g>
	</g>
</g>
<g>
	<g>
		<g>
			<path fill="#FFF9BF" d="M91.174,277.495c0.125,0,0.223,0.035,0.293,0.105c0.016,0.016,0.035,0.047,0.059,0.094
				c0.047,0.07,0.07,0.148,0.07,0.234v7.43c0,0.055-0.012,0.107-0.035,0.158s-0.055,0.096-0.094,0.135
				c-0.016,0.016-0.035,0.033-0.059,0.053s-0.047,0.035-0.07,0.047s-0.051,0.02-0.082,0.023s-0.059,0.006-0.082,0.006
				c-0.109,0-0.207-0.043-0.293-0.129s-0.129-0.184-0.129-0.293v-7.02H83.19c-0.055,0-0.107-0.012-0.158-0.035
				s-0.096-0.055-0.135-0.094s-0.07-0.084-0.094-0.135s-0.035-0.104-0.035-0.158c0-0.109,0.043-0.207,0.129-0.293
				s0.184-0.129,0.293-0.129H91.174z"/>
		</g>
	</g>
</g>
<g>
	<g>
		<g>
			<path fill="#FFF9BF" d="M75.008,277.495c0.109,0,0.207,0.043,0.293,0.129s0.129,0.184,0.129,0.293
				c0,0.055-0.012,0.107-0.035,0.158s-0.055,0.096-0.094,0.135s-0.084,0.07-0.135,0.094s-0.104,0.035-0.158,0.035h-7.562v7.02
				c0,0.109-0.043,0.207-0.129,0.293s-0.184,0.129-0.293,0.129c-0.023,0-0.051-0.002-0.082-0.006s-0.059-0.012-0.082-0.023
				s-0.047-0.027-0.07-0.047s-0.043-0.037-0.059-0.053c-0.039-0.039-0.07-0.084-0.094-0.135s-0.035-0.104-0.035-0.158v-7.43
				c0-0.086,0.023-0.164,0.07-0.234c0.023-0.047,0.043-0.078,0.059-0.094c0.07-0.07,0.168-0.105,0.293-0.105H75.008z"/>
		</g>
	</g>
</g>
</svg>
